<svg width="92" height="41" viewBox="0 0 92 41" fill="none" xmlns="http://www.w3.org/2000/svg">
<g clip-path="url(#clip0_14_5501)">
<path d="M12.7641 57.8316C13.885 55.5116 24.0258 37.2678 25.1467 34.9536C26.1657 32.8569 27.1847 30.737 28.556 29.0058C29.9273 27.2745 31.6509 25.9376 33.5376 25.7665C35.1214 25.6215 36.6732 26.2914 38.196 26.9265C41.2821 28.2402 44.4527 29.4872 47.6961 29.4176C49.0529 29.3886 50.4009 29.1275 51.7547 28.9912C57.0624 28.4548 62.4515 29.812 67.6951 28.6027C68.982 28.3127 70.2922 27.8255 71.2937 26.7206C72.1439 25.7868 72.9183 24.4209 73.6666 23.345C79.047 15.5876 84.4391 7.80111 90.6318 1.15726C89.9825 0.612067 88.6898 0.54541 87.9241 0.620809C85.8075 0.829608 83.947 3.03359 81.842 3.37869L71.3345 5.11868C69.1188 5.48118 66.8944 5.84658 64.7487 6.64697C63.127 7.24727 61.5461 8.09691 59.9389 8.70011C56.1336 10.1211 52.0779 10.1907 48.1649 9.5701C44.2518 8.94951 40.3563 7.70253 36.5539 6.24964C34.7647 5.5633 32.8916 5.11759 30.9842 4.92433C30.1007 4.80122 29.202 4.83859 28.3318 5.03457C27.4566 5.3058 26.6316 5.71717 25.8891 6.25254C18.9423 10.8925 4.85653 35.09 0.01182 43.12C-0.00564894 43.1055 2.23037 57.2371 12.7641 57.8316Z" fill="#EDA68A"/>
</g>
<g clip-path="url(#clip1_14_5501)">
<path d="M12.7641 57.8316C13.885 55.5116 24.0258 37.2678 25.1467 34.9536C26.1657 32.8569 27.1847 30.737 28.556 29.0058C29.9273 27.2745 31.6509 25.9376 33.5376 25.7665C35.1214 25.6215 36.6732 26.2914 38.196 26.9265C41.2821 28.2402 44.4527 29.4872 47.6961 29.4176C49.0529 29.3886 50.4009 29.1275 51.7547 28.9912C57.0624 28.4548 62.4515 29.812 67.6951 28.6027C68.982 28.3127 70.2922 27.8255 71.2937 26.7206C72.1439 25.7868 72.9183 24.4209 73.6666 23.345C79.047 15.5876 84.4391 7.80111 90.6318 1.15726C89.9825 0.612067 88.6898 0.54541 87.9241 0.620809C85.8075 0.829608 83.947 3.03359 81.842 3.37869L71.3345 5.11868C69.1188 5.48118 66.8944 5.84658 64.7487 6.64697C63.127 7.24727 61.5461 8.09691 59.9389 8.70011C56.1336 10.1211 52.0779 10.1907 48.1649 9.5701C44.2518 8.94951 40.3563 7.70253 36.5539 6.24964C34.7647 5.5633 32.8916 5.11759 30.9842 4.92433C30.1007 4.80122 29.202 4.83859 28.3318 5.03457C27.4566 5.3058 26.6316 5.71717 25.8891 6.25254C18.9423 10.8925 4.85653 35.09 0.01182 43.12C-0.00564894 43.1055 2.23037 57.2371 12.7641 57.8316Z" fill="#EDA68A"/>
</g>
<path d="M60.3818 20.9286C61.6192 20.7865 61.9045 21.062 63.0633 20.4762C63.8873 20.0586 64.5016 19.1538 65.1014 18.3041C66.4072 16.453 67.8391 14.6934 69.3871 13.0377C69.3871 13.0377 71.1543 11.0078 72.9682 9.34897C75.8797 7.23489 78.8406 5.10345 82.0549 3.95796C82.7072 3.69 83.4079 3.55869 84.1133 3.57224C84.4835 3.59432 84.8442 3.69783 85.1694 3.87534C85.4946 4.05284 85.7763 4.29995 85.9942 4.59884C86.0961 5.30354 85.5196 5.92699 85.0538 6.29239C81.1 9.39246 77.6702 13.5104 74.2813 17.6023L66.6182 26.8155C65.6167 28.0161 64.4346 29.3037 63.0895 29.1007" stroke="#8D473D" stroke-width="0.2" stroke-linecap="round" stroke-linejoin="round"/>
<path d="M44.6654 29.1039C46.5841 29.4316 48.4503 28.2078 50.1507 27.0188C52.7361 25.2266 56.8704 24.0521 59.2927 21.9003C64.2975 17.4546 66.9557 14.9085 71.3958 11.3531C71.978 10.8949 72.9359 10.3149 73.4687 9.77548C69.9749 7.5164 66.9062 8.79239 63.8317 10.3555C61.2114 11.704 58.6784 13.7862 56.2852 15.7611C55.3855 16.5064 54.3665 17.7041 53.3154 17.8839C52.6598 17.9674 51.9939 17.9111 51.3618 17.7186C48.8121 17.0376 46.1918 16.6532 43.5532 16.5731" stroke="#8D473D" stroke-width="0.2" stroke-linecap="round" stroke-linejoin="round"/>
<path d="M83.9126 5.35865C83.6538 5.56774 83.4458 5.83249 83.3041 6.13299C83.2366 6.27611 83.2086 6.43457 83.2229 6.59206C83.2372 6.74955 83.2934 6.90035 83.3857 7.02904C83.4853 7.12887 83.6098 7.20059 83.7464 7.23677C83.883 7.27295 84.0268 7.27227 84.163 7.23493C85.3276 6.85503 86.1865 5.63708 87.2579 4.95268C88.4546 4.18999 87.0308 4.10876 86.4573 4.26535C85.5476 4.46714 84.6843 4.83807 83.9126 5.35865Z" fill="#BB200C" stroke="#8D473D" stroke-width="0.2" stroke-linecap="round" stroke-linejoin="round"/>
<path d="M88.4772 2.15151C88.339 2.27972 88.2255 2.43201 88.1424 2.60095C88.0517 2.78952 88.0381 3.00583 88.1045 3.20417C88.1407 3.3045 88.2115 3.38873 88.3043 3.44185C88.3971 3.49497 88.5059 3.51352 88.6111 3.49417C88.8124 3.43324 88.9955 3.32363 89.1439 3.17514C89.6869 2.71059 90.2058 2.21895 90.6986 1.702C90.9549 1.43231 91.2082 1.15387 91.4556 0.866773C91.6129 0.684075 91.9302 0.437577 91.607 0.286778C91.4265 0.193979 90.9985 0.46371 90.8209 0.53911C90.5361 0.66267 90.2598 0.805079 89.9941 0.965398C89.4402 1.29541 88.9305 1.69397 88.4772 2.15151Z" fill="#BB200C" stroke="#8D473D" stroke-width="0.2" stroke-linecap="round" stroke-linejoin="round"/>
<path d="M75.4369 9.83585C74.3544 9.61562 73.2364 9.63685 72.1632 9.89808C71.0899 10.1593 70.0881 10.654 69.2296 11.3467C69.1374 11.4061 69.0669 11.4936 69.0287 11.5961C68.9472 11.8629 69.2151 12.3617 69.3985 12.5183C69.5841 12.6965 69.8231 12.8094 70.079 12.8398C70.335 12.8701 70.5939 12.8163 70.8164 12.6865C72.2401 11.9528 73.7279 11.1089 75.1836 10.4738C75.2871 10.4384 75.3761 10.3701 75.4369 10.2795C75.5068 10.1722 75.5359 9.85615 75.4369 9.83585Z" fill="#BB200C" stroke="#8D473D" stroke-width="0.2" stroke-linecap="round" stroke-linejoin="round"/>
<path d="M27.8193 12.9684C28.7976 11.9099 29.8981 10.9385 31.153 10.6891C31.9462 10.5697 32.756 10.6242 33.5258 10.8486C34.9718 11.1908 36.3744 11.6947 37.7067 12.3508" stroke="#8D473D" stroke-width="0.2" stroke-linecap="round" stroke-linejoin="round"/>
<defs>
<clipPath id="clip0_14_5501">
<rect width="52" height="48" fill="white" transform="translate(0 10)"/>
</clipPath>
<clipPath id="clip1_14_5501">
<rect width="39" height="57" fill="white" transform="translate(52 1)"/>
</clipPath>
</defs>
</svg>
