<svg width="271" height="59" viewBox="0 0 271 59" fill="none" xmlns="http://www.w3.org/2000/svg">
<path d="M14.5296 36.7324H9.97068V45.5224H9.83949L3.8702 36.7324H0V53.5251H4.55896V44.7024H4.65736L10.725 53.5251H14.5296V36.7324Z" fill="url(#paint0_linear_14_5953)"/>
<path d="M21.0483 53.5251L22.0159 50.3109H27.5588L28.5263 53.5251H33.4461L27.9031 36.7324H21.6715L16.1286 53.5251H21.0483ZM26.4272 32.2062C26.419 32.9278 25.9599 33.5838 24.7873 33.5838C23.5656 33.5838 23.1064 32.895 23.1146 32.2062H20.2939C20.2857 34.3381 22.0241 35.7157 24.7873 35.7157C27.5342 35.7157 29.2725 34.3381 29.2807 32.2062H26.4272ZM23.049 46.8999L24.7217 41.357H24.8529L26.5256 46.8999H23.049Z" fill="url(#paint1_linear_14_5953)"/>
<path d="M49.5931 36.7324H45.0341V45.5224H44.9029L38.9336 36.7324H35.0634V53.5251H39.6224V44.7024H39.7208L45.7885 53.5251H49.5931V36.7324Z" fill="url(#paint2_linear_14_5953)"/>
<path d="M62.655 42.2753H67.2632C66.9106 38.9053 63.8521 36.5028 59.8835 36.5028C55.3574 36.5028 51.684 39.6187 51.684 45.1616C51.684 50.4749 55.013 53.7547 59.9163 53.7547C64.3113 53.7547 67.4599 51.0653 67.4599 46.4735V44.1448H60.0147V47.3919H63.065C63.024 48.8514 61.9908 49.7861 59.9491 49.7861C57.5877 49.7861 56.3741 48.0478 56.3741 45.096C56.3741 42.1851 57.6861 40.4714 59.9819 40.4714C61.4087 40.4714 62.3762 41.1274 62.655 42.2753Z" fill="url(#paint3_linear_14_5953)"/>
<path d="M74.1856 53.5251H85.5339V49.8517H78.7446V36.7324H74.1856V53.5251Z" fill="url(#paint4_linear_14_5953)"/>
<path d="M103.349 36.4044C103.349 36.429 103.349 36.4536 103.349 36.4864C103.349 38.2329 103.349 39.4793 101.874 39.8565V36.7324H97.3146V47.0967C97.3146 48.6628 96.1912 49.7861 94.6251 49.7861C93.059 49.7861 91.9357 48.6628 91.9357 47.0967V36.7324H87.3767V47.4903C87.3767 51.3277 90.2794 53.7219 94.6251 53.7219C98.9381 53.7219 101.874 51.3277 101.874 47.4903V41.9145C105.022 41.5374 105.842 39.5039 105.842 36.4044H103.349Z" fill="url(#paint5_linear_14_5953)"/>
<path d="M122.348 36.1748C122.348 37.8804 122.135 39.0201 121.282 39.4055C119.79 37.495 117.486 36.5028 114.87 36.5028C110.278 36.5028 106.703 39.5203 106.703 45.1288C106.703 50.7045 110.278 53.7547 114.87 53.7547C119.429 53.7547 123.037 50.7373 123.037 45.1288C123.037 43.6283 122.782 42.3163 122.315 41.193C124.062 40.5288 124.808 38.7659 124.808 36.1748H122.348ZM118.346 45.1288C118.346 48.1462 117.133 49.7861 114.87 49.7861C112.607 49.7861 111.393 48.1462 111.393 45.1288C111.393 42.1113 112.607 40.4714 114.87 40.4714C117.133 40.4714 118.346 42.1113 118.346 45.1288ZM114.87 58.6089C116.1 58.6089 117.1 57.6823 117.1 56.5426C117.1 55.4028 116.1 54.4763 114.87 54.4763C113.64 54.4763 112.64 55.4028 112.64 56.5426C112.64 57.6823 113.64 58.6089 114.87 58.6089Z" fill="url(#paint6_linear_14_5953)"/>
<path d="M140.69 36.7324H136.131V45.5224H136L130.031 36.7324H126.161V53.5251H130.72V44.7024H130.818L136.886 53.5251H140.69V36.7324Z" fill="url(#paint7_linear_14_5953)"/>
<path d="M153.752 42.2753H158.36C158.008 38.9053 154.949 36.5028 150.981 36.5028C146.455 36.5028 142.781 39.6187 142.781 45.1616C142.781 50.4749 146.11 53.7547 151.014 53.7547C155.409 53.7547 158.557 51.0653 158.557 46.4735V44.1448H151.112V47.3919H154.162C154.121 48.8514 153.088 49.7861 151.046 49.7861C148.685 49.7861 147.471 48.0478 147.471 45.096C147.471 42.1851 148.783 40.4714 151.079 40.4714C152.506 40.4714 153.473 41.1274 153.752 42.2753Z" fill="url(#paint8_linear_14_5953)"/>
<path d="M180.96 43.0297C180.6 38.8643 177.549 36.5028 173.318 36.5028C168.792 36.5028 165.217 39.5203 165.217 45.1288C165.217 50.7127 168.694 53.7547 173.318 53.7547C178.238 53.7547 180.731 50.3437 180.96 47.4903L176.336 47.4575C176.106 48.8924 175.09 49.7861 173.417 49.7861C171.195 49.7861 169.907 48.2118 169.907 45.1288C169.907 42.2097 171.154 40.4714 173.45 40.4714C175.204 40.4714 176.205 41.5046 176.336 43.0297H180.96Z" fill="url(#paint9_linear_14_5953)"/>
<path d="M192.967 36.7324V47.0967C192.967 48.6628 191.843 49.7861 190.277 49.7861C188.711 49.7861 187.588 48.6628 187.588 47.0967V36.7324H183.029V47.4903C183.029 51.3277 185.931 53.7219 190.277 53.7219C194.59 53.7219 197.526 51.3277 197.526 47.4903V36.7324H192.967ZM191.852 34.8629V34.2069C192.754 34.0758 193.639 33.5838 193.623 32.6654C193.639 31.2223 191.835 30.4023 188.473 30.4023L188.375 32.2062C189.277 32.2062 189.933 32.3046 189.916 32.895C189.933 33.2558 189.474 33.551 188.309 33.5838L188.605 34.8629H191.852Z" fill="url(#paint10_linear_14_5953)"/>
<path d="M204.055 53.5251L205.022 50.3109H210.565L211.533 53.5251H216.452L210.909 36.7324H204.678L199.135 53.5251H204.055ZM206.055 46.8999L207.728 41.357H207.859L209.532 46.8999H206.055Z" fill="url(#paint11_linear_14_5953)"/>
<path d="M222.67 53.5251H230.574C234.223 53.5251 236.478 51.5326 236.478 48.7694C236.478 46.3997 234.731 44.85 232.575 44.768V44.604C234.518 44.2186 235.822 42.7837 235.822 40.9306C235.822 38.3723 233.788 36.7324 229.951 36.7324H222.67V53.5251ZM227.229 49.8845V46.3423H229.426C230.812 46.3423 231.656 46.9983 231.656 48.179C231.656 49.3024 230.894 49.8845 229.361 49.8845H227.229ZM227.229 43.5217V40.3074H229.164C230.295 40.3074 231.132 40.8814 231.132 41.9145C231.132 42.9477 230.295 43.5217 229.098 43.5217H227.229Z" fill="url(#paint12_linear_14_5953)"/>
<path d="M242.455 53.5251L243.423 50.3109H248.966L249.933 53.5251H254.853L249.31 36.7324H243.078L237.535 53.5251H242.455ZM246.194 58.6089C247.424 58.6089 248.425 57.6823 248.425 56.5426C248.425 55.4028 247.424 54.4763 246.194 54.4763C244.964 54.4763 243.964 55.4028 243.964 56.5426C243.964 57.6823 244.964 58.6089 246.194 58.6089ZM244.456 46.8999L246.129 41.357H246.26L247.933 46.8999H244.456Z" fill="url(#paint13_linear_14_5953)"/>
<path d="M271 36.7324H266.441V45.5224H266.31L260.341 36.7324H256.47V53.5251H261.029V44.7024H261.128L267.195 53.5251H271V36.7324Z" fill="url(#paint14_linear_14_5953)"/>
<path d="M65.0723 9.96913H70.1232V23.0885H74.6166V9.96913H79.6675V6.29572H65.0723V9.96913Z" fill="url(#paint15_linear_14_5953)"/>
<path d="M96.862 14.6921C96.862 9.08358 93.2542 6.06614 88.6952 6.06614C84.1035 6.06614 80.5285 9.08358 80.5285 14.6921C80.5285 20.2678 84.1035 23.318 88.6952 23.318C93.2542 23.318 96.862 20.3006 96.862 14.6921ZM92.1719 14.6921C92.1719 17.7095 90.9583 19.3494 88.6952 19.3494C86.4322 19.3494 85.2186 17.7095 85.2186 14.6921C85.2186 11.6746 86.4322 10.0347 88.6952 10.0347C90.9583 10.0347 92.1719 11.6746 92.1719 14.6921ZM93.9102 3.70466V3.17989C94.6317 3.04869 95.3861 2.62231 95.3861 1.90075C95.3861 0.687216 94.0742 0.03125 91.6799 0.03125L91.5815 1.50717C92.3358 1.50717 92.8934 1.60557 92.8934 2.09754C92.8934 2.39273 92.4998 2.62231 91.5487 2.65511L91.8111 3.70466H93.9102ZM89.5808 2.78631H87.7441L84.4315 5.04939H87.0881L88.6952 4.03264L90.2368 5.04939H92.8934L89.5808 2.78631Z" fill="url(#paint16_linear_14_5953)"/>
<path d="M113.501 6.29572H108.942V15.0857H108.811L102.842 6.29572H98.9714V23.0885H103.53V14.2657H103.629L109.696 23.0885H113.501V6.29572Z" fill="url(#paint17_linear_14_5953)"/>
<path d="M126.563 11.8386H131.171C130.818 8.46861 127.76 6.06614 123.791 6.06614C119.265 6.06614 115.592 9.18197 115.592 14.7249C115.592 20.0382 118.921 23.318 123.824 23.318C128.219 23.318 131.368 20.6286 131.368 16.0368V13.7081H123.923V16.9552H126.973C126.932 18.4147 125.899 19.3494 123.857 19.3494C121.496 19.3494 120.282 17.6111 120.282 14.6593C120.282 11.7484 121.594 10.0347 123.89 10.0347C125.317 10.0347 126.284 10.6907 126.563 11.8386Z" fill="url(#paint18_linear_14_5953)"/>
<path d="M154.362 14.6921C154.362 9.08358 150.754 6.06614 146.195 6.06614C141.603 6.06614 138.028 9.08358 138.028 14.6921C138.028 20.2678 141.603 23.318 146.195 23.318C147.22 23.318 148.195 23.1622 149.097 22.8671L150.36 24.3348H154.394L151.844 21.2517C153.402 19.7922 154.362 17.5865 154.362 14.6921ZM144.588 16.8568L146.465 19.3412C146.375 19.3494 146.285 19.3494 146.195 19.3494C143.932 19.3494 142.718 17.7095 142.718 14.6921C142.718 11.6746 143.932 10.0347 146.195 10.0347C148.458 10.0347 149.671 11.6746 149.671 14.6921C149.671 16.045 149.425 17.1192 148.958 17.8981L148.13 16.8568H144.588Z" fill="url(#paint19_linear_14_5953)"/>
<path d="M166.431 6.29572V16.66C166.431 18.2261 165.308 19.3494 163.742 19.3494C162.176 19.3494 161.052 18.2261 161.052 16.66V6.29572H156.493V17.0536C156.493 20.891 159.396 23.2852 163.742 23.2852C168.055 23.2852 170.99 20.891 170.99 17.0536V6.29572H166.431Z" fill="url(#paint20_linear_14_5953)"/>
<path d="M177.519 23.0885L178.487 19.8742H184.03L184.997 23.0885H189.917L184.374 6.29572H178.142L172.599 23.0885H177.519ZM179.52 16.4632L181.193 10.9203H181.324L182.996 16.4632H179.52Z" fill="url(#paint21_linear_14_5953)"/>
<path d="M206.064 6.29572H201.505V15.0857H201.374L195.404 6.29572H191.534V23.0885H196.093V14.2657H196.192L202.259 23.0885H206.064V6.29572Z" fill="url(#paint22_linear_14_5953)"/>
<defs>
<linearGradient id="paint0_linear_14_5953" x1="135.5" y1="30.4023" x2="135.5" y2="58.6089" gradientUnits="userSpaceOnUse">
<stop stop-color="#CC263E"/>
<stop offset="1" stop-color="#732A4D"/>
</linearGradient>
<linearGradient id="paint1_linear_14_5953" x1="135.5" y1="30.4023" x2="135.5" y2="58.6089" gradientUnits="userSpaceOnUse">
<stop stop-color="#CC263E"/>
<stop offset="1" stop-color="#732A4D"/>
</linearGradient>
<linearGradient id="paint2_linear_14_5953" x1="135.5" y1="30.4023" x2="135.5" y2="58.6089" gradientUnits="userSpaceOnUse">
<stop stop-color="#CC263E"/>
<stop offset="1" stop-color="#732A4D"/>
</linearGradient>
<linearGradient id="paint3_linear_14_5953" x1="135.5" y1="30.4023" x2="135.5" y2="58.6089" gradientUnits="userSpaceOnUse">
<stop stop-color="#CC263E"/>
<stop offset="1" stop-color="#732A4D"/>
</linearGradient>
<linearGradient id="paint4_linear_14_5953" x1="135.5" y1="30.4023" x2="135.5" y2="58.6089" gradientUnits="userSpaceOnUse">
<stop stop-color="#CC263E"/>
<stop offset="1" stop-color="#732A4D"/>
</linearGradient>
<linearGradient id="paint5_linear_14_5953" x1="135.5" y1="30.4023" x2="135.5" y2="58.6089" gradientUnits="userSpaceOnUse">
<stop stop-color="#CC263E"/>
<stop offset="1" stop-color="#732A4D"/>
</linearGradient>
<linearGradient id="paint6_linear_14_5953" x1="135.5" y1="30.4023" x2="135.5" y2="58.6089" gradientUnits="userSpaceOnUse">
<stop stop-color="#CC263E"/>
<stop offset="1" stop-color="#732A4D"/>
</linearGradient>
<linearGradient id="paint7_linear_14_5953" x1="135.5" y1="30.4023" x2="135.5" y2="58.6089" gradientUnits="userSpaceOnUse">
<stop stop-color="#CC263E"/>
<stop offset="1" stop-color="#732A4D"/>
</linearGradient>
<linearGradient id="paint8_linear_14_5953" x1="135.5" y1="30.4023" x2="135.5" y2="58.6089" gradientUnits="userSpaceOnUse">
<stop stop-color="#CC263E"/>
<stop offset="1" stop-color="#732A4D"/>
</linearGradient>
<linearGradient id="paint9_linear_14_5953" x1="135.5" y1="30.4023" x2="135.5" y2="58.6089" gradientUnits="userSpaceOnUse">
<stop stop-color="#CC263E"/>
<stop offset="1" stop-color="#732A4D"/>
</linearGradient>
<linearGradient id="paint10_linear_14_5953" x1="135.5" y1="30.4023" x2="135.5" y2="58.6089" gradientUnits="userSpaceOnUse">
<stop stop-color="#CC263E"/>
<stop offset="1" stop-color="#732A4D"/>
</linearGradient>
<linearGradient id="paint11_linear_14_5953" x1="135.5" y1="30.4023" x2="135.5" y2="58.6089" gradientUnits="userSpaceOnUse">
<stop stop-color="#CC263E"/>
<stop offset="1" stop-color="#732A4D"/>
</linearGradient>
<linearGradient id="paint12_linear_14_5953" x1="135.5" y1="30.4023" x2="135.5" y2="58.6089" gradientUnits="userSpaceOnUse">
<stop stop-color="#CC263E"/>
<stop offset="1" stop-color="#732A4D"/>
</linearGradient>
<linearGradient id="paint13_linear_14_5953" x1="135.5" y1="30.4023" x2="135.5" y2="58.6089" gradientUnits="userSpaceOnUse">
<stop stop-color="#CC263E"/>
<stop offset="1" stop-color="#732A4D"/>
</linearGradient>
<linearGradient id="paint14_linear_14_5953" x1="135.5" y1="30.4023" x2="135.5" y2="58.6089" gradientUnits="userSpaceOnUse">
<stop stop-color="#CC263E"/>
<stop offset="1" stop-color="#732A4D"/>
</linearGradient>
<linearGradient id="paint15_linear_14_5953" x1="135.568" y1="0.03125" x2="135.568" y2="24.3348" gradientUnits="userSpaceOnUse">
<stop stop-color="#CC263E"/>
<stop offset="1" stop-color="#732A4D"/>
</linearGradient>
<linearGradient id="paint16_linear_14_5953" x1="135.568" y1="0.03125" x2="135.568" y2="24.3348" gradientUnits="userSpaceOnUse">
<stop stop-color="#CC263E"/>
<stop offset="1" stop-color="#732A4D"/>
</linearGradient>
<linearGradient id="paint17_linear_14_5953" x1="135.568" y1="0.03125" x2="135.568" y2="24.3348" gradientUnits="userSpaceOnUse">
<stop stop-color="#CC263E"/>
<stop offset="1" stop-color="#732A4D"/>
</linearGradient>
<linearGradient id="paint18_linear_14_5953" x1="135.568" y1="0.03125" x2="135.568" y2="24.3348" gradientUnits="userSpaceOnUse">
<stop stop-color="#CC263E"/>
<stop offset="1" stop-color="#732A4D"/>
</linearGradient>
<linearGradient id="paint19_linear_14_5953" x1="135.568" y1="0.03125" x2="135.568" y2="24.3348" gradientUnits="userSpaceOnUse">
<stop stop-color="#CC263E"/>
<stop offset="1" stop-color="#732A4D"/>
</linearGradient>
<linearGradient id="paint20_linear_14_5953" x1="135.568" y1="0.03125" x2="135.568" y2="24.3348" gradientUnits="userSpaceOnUse">
<stop stop-color="#CC263E"/>
<stop offset="1" stop-color="#732A4D"/>
</linearGradient>
<linearGradient id="paint21_linear_14_5953" x1="135.568" y1="0.03125" x2="135.568" y2="24.3348" gradientUnits="userSpaceOnUse">
<stop stop-color="#CC263E"/>
<stop offset="1" stop-color="#732A4D"/>
</linearGradient>
<linearGradient id="paint22_linear_14_5953" x1="135.568" y1="0.03125" x2="135.568" y2="24.3348" gradientUnits="userSpaceOnUse">
<stop stop-color="#CC263E"/>
<stop offset="1" stop-color="#732A4D"/>
</linearGradient>
</defs>
</svg>
