<svg width="204" height="56" viewBox="0 0 204 56" fill="none" xmlns="http://www.w3.org/2000/svg">
<path d="M0.312519 22H12.5938V18.5312H6.34377V18.4375L7.84377 17.1875C11.4922 14.1484 12.4219 12.5703 12.4219 10.7188C12.4219 7.73438 9.97658 5.78125 6.14064 5.78125C2.41408 5.78125 -0.00779365 7.85156 1.88451e-05 11.2188H4.12502C4.11721 9.875 4.93752 9.125 6.14064 9.125C7.33596 9.125 8.18752 9.86719 8.18752 11.0938C8.18752 12.2266 7.46096 12.9609 6.28127 13.9375L0.312519 18.875V22Z" fill="url(#paint0_linear_14_5630)"/>
<path d="M21.5039 22.4375C25.8555 22.4453 28.5586 19.3281 28.5664 14.0313C28.5742 8.76563 25.8555 5.78125 21.5039 5.78125C17.1446 5.78125 14.4571 8.75 14.4414 14.0313C14.4258 19.3047 17.1446 22.4297 21.5039 22.4375ZM21.5039 18.9062C20.0039 18.9062 18.9258 17.3984 18.9414 14.0313C18.9571 10.7422 20.0039 9.28125 21.5039 9.28125C23.0039 9.28125 24.0586 10.7422 24.0664 14.0313C24.0742 17.3984 23.0039 18.9062 21.5039 18.9062Z" fill="url(#paint1_linear_14_5630)"/>
<path d="M30.6055 22H42.8867V18.5312H36.6367V18.4375L38.1367 17.1875C41.7852 14.1484 42.7149 12.5703 42.7149 10.7188C42.7149 7.73438 40.2696 5.78125 36.4336 5.78125C32.7071 5.78125 30.2852 7.85156 30.293 11.2188H34.418C34.4102 9.875 35.2305 9.125 36.4336 9.125C37.6289 9.125 38.4805 9.86719 38.4805 11.0938C38.4805 12.2266 37.7539 12.9609 36.5742 13.9375L30.6055 18.875V22Z" fill="url(#paint2_linear_14_5630)"/>
<path d="M52.6719 6H48.6719L44.7344 8.40625V12.0938L48.2344 10H48.3281V22H52.6719V6Z" fill="url(#paint3_linear_14_5630)"/>
<path d="M60.3086 22H71.1211V18.5H64.6524V6H60.3086V22Z" fill="url(#paint4_linear_14_5630)"/>
<path d="M77.0332 22L77.9551 18.9375H83.2363L84.1582 22H88.8457L83.5645 6H77.627L72.3457 22H77.0332ZM79.1895 4.5H82.0332L80.5332 1H76.8457L79.1895 4.5ZM78.9395 15.6875L80.5332 10.4063H80.6582L82.252 15.6875H78.9395Z" fill="url(#paint5_linear_14_5630)"/>
<path d="M94.7695 6V22H99.0195V12.6875H99.1445L102.707 21.875H105.27L108.832 12.75H108.957V22H113.207V6H107.801L104.082 15.0625H103.895L100.176 6H94.7695Z" fill="url(#paint6_linear_14_5630)"/>
<path d="M130.766 14C130.766 8.65625 127.328 5.78125 122.984 5.78125C118.609 5.78125 115.203 8.65625 115.203 14C115.203 19.3125 118.609 22.2188 122.984 22.2188C127.328 22.2188 130.766 19.3438 130.766 14ZM126.297 14C126.297 16.875 125.141 18.4375 122.984 18.4375C120.828 18.4375 119.672 16.875 119.672 14C119.672 11.125 120.828 9.5625 122.984 9.5625C125.141 9.5625 126.297 11.125 126.297 14ZM121.453 4.57812L122.984 2.85938L124.516 4.57812H128.078V4.48438L124.484 0.921875H121.484L117.891 4.48438V4.57812H121.453ZM122.984 26.8438C124.156 26.8438 125.109 25.9609 125.109 24.875C125.109 23.7891 124.156 22.9062 122.984 22.9062C121.813 22.9062 120.859 23.7891 120.859 24.875C120.859 25.9609 121.813 26.8438 122.984 26.8438Z" fill="url(#paint7_linear_14_5630)"/>
<path d="M131.586 9.5H136.398V22H140.68V9.5H145.492V6H131.586V9.5Z" fill="url(#paint8_linear_14_5630)"/>
<path d="M165.354 6H161.01V14.375H160.885L155.197 6H151.51V22H155.854V13.5938H155.947L161.729 22H165.354V6Z" fill="url(#paint9_linear_14_5630)"/>
<path d="M171.564 22L172.486 18.9375H177.768L178.689 22H183.377L178.096 6H172.158L166.877 22H171.564ZM176.689 1.6875C176.682 2.375 176.244 3 175.127 3C173.963 3 173.525 2.34375 173.533 1.6875H170.846C170.838 3.71875 172.494 5.03125 175.127 5.03125C177.744 5.03125 179.4 3.71875 179.408 1.6875H176.689ZM173.471 15.6875L175.064 10.4063H175.189L176.783 15.6875H173.471Z" fill="url(#paint10_linear_14_5630)"/>
<path d="M184.918 6V22H189.168V12.6875H189.293L192.855 21.875H195.418L198.98 12.75H199.105V22H203.355V6H197.949L194.23 15.0625H194.043L190.324 6H184.918Z" fill="url(#paint11_linear_14_5630)"/>
<path d="M24.8438 39H20.5V47.375H20.375L14.6875 39H11V55H15.3438V46.5938H15.4375L21.2188 55H24.8438V39Z" fill="url(#paint12_linear_14_5630)"/>
<path d="M31.0547 55L31.9766 51.9375H37.2578L38.1797 55H42.8672L37.5859 39H31.6484L26.3672 55H31.0547ZM36.4609 35.0938C36.4531 35.6875 35.9531 36.3125 34.5859 36.3125C33.2344 36.3125 32.7031 35.6875 32.7109 35.0938H30.3359C30.3281 36.75 31.9844 37.875 34.5859 37.875C37.2031 37.875 38.8906 36.75 38.8984 35.0938H36.4609ZM32.9609 48.6875L34.5547 43.4062H34.6797L36.2734 48.6875H32.9609ZM33.4922 35.2812H35.6172L37.6797 33.375H35.0234L33.4922 35.2812Z" fill="url(#paint13_linear_14_5630)"/>
<path d="M44.4082 39V55H48.6582V45.6875H48.7832L52.3457 54.875H54.9082L58.4707 45.75H58.5957V55H62.8457V39H57.4395L53.7207 48.0625H53.5332L49.8145 39H44.4082Z" fill="url(#paint14_linear_14_5630)"/>
<path d="M69.2871 55H76.8184C80.2949 55 82.4434 53.1016 82.4434 50.4688C82.4434 48.2109 80.7793 46.7344 78.7246 46.6562V46.5C80.5762 46.1328 81.8184 44.7656 81.8184 43C81.8184 40.5625 79.8809 39 76.2246 39H69.2871V55ZM73.6309 51.5312V48.1562H75.7246C77.0449 48.1562 77.8496 48.7812 77.8496 49.9062C77.8496 50.9766 77.123 51.5312 75.6621 51.5312H73.6309ZM73.6309 45.4688V42.4062H75.4746C76.5527 42.4062 77.3496 42.9531 77.3496 43.9375C77.3496 44.9219 76.5527 45.4688 75.4121 45.4688H73.6309Z" fill="url(#paint15_linear_14_5630)"/>
<path d="M88.1387 55L89.0605 51.9375H94.3418L95.2637 55H99.9512L94.6699 39H88.7324L83.4512 55H88.1387ZM93.5449 35.0938C93.5371 35.6875 93.0371 36.3125 91.6699 36.3125C90.3184 36.3125 89.7871 35.6875 89.7949 35.0938H87.4199C87.4121 36.75 89.0684 37.875 91.6699 37.875C94.2871 37.875 95.9746 36.75 95.9824 35.0938H93.5449ZM90.0449 48.6875L91.6387 43.4062H91.7637L93.3574 48.6875H90.0449ZM90.5762 35.2812H92.7012L94.7637 33.375H92.1074L90.5762 35.2812Z" fill="url(#paint16_linear_14_5630)"/>
<path d="M99.0137 42.5H103.826V55H108.107V42.5H112.92V39H99.0137V42.5Z" fill="url(#paint17_linear_14_5630)"/>
<path d="M118.281 39L124.156 49.9688V55H128.469V49.9688L134.344 39H129.5L126.375 45.5H126.25L123.125 39H118.281ZM124.875 37.5H127.719L130.062 34H126.375L124.875 37.5Z" fill="url(#paint18_linear_14_5630)"/>
<path d="M139.705 42.5H144.518V55H148.799V42.5H153.611V39H139.705V42.5Z" fill="url(#paint19_linear_14_5630)"/>
<path d="M155.246 55H159.59V49.7188H161.09L163.902 55H168.621L165.371 49.0312C167.074 48.2109 168.09 46.6562 168.09 44.4375C168.09 41.0312 165.707 39 162.152 39H155.246V55ZM159.59 46.3438V42.4688H161.121C162.645 42.4688 163.559 43.0625 163.559 44.4375C163.559 45.8047 162.645 46.3438 161.121 46.3438H159.59Z" fill="url(#paint20_linear_14_5630)"/>
<path d="M184.785 38.4687C184.785 40.0938 184.582 41.1797 183.77 41.5469C182.348 39.7266 180.152 38.7812 177.66 38.7812C173.285 38.7812 169.879 41.6562 169.879 47C169.879 52.3125 173.285 55.2188 177.66 55.2188C182.004 55.2188 185.441 52.3438 185.441 47C185.441 45.5703 185.199 44.3203 184.754 43.25C186.418 42.6172 187.129 40.9375 187.129 38.4687H184.785ZM180.973 47C180.973 49.875 179.816 51.4375 177.66 51.4375C175.504 51.4375 174.348 49.875 174.348 47C174.348 44.125 175.504 42.5625 177.66 42.5625C179.816 42.5625 180.973 44.125 180.973 47ZM176.254 37.5H179.098L177.598 34H173.91L176.254 37.5Z" fill="url(#paint21_linear_14_5630)"/>
<path d="M192.762 39H188.418V55H192.762V39Z" fill="url(#paint22_linear_14_5630)"/>
<defs>
<linearGradient id="paint0_linear_14_5630" x1="101.678" y1="0.921875" x2="101.678" y2="26.8438" gradientUnits="userSpaceOnUse">
<stop stop-color="#CC263E"/>
<stop offset="1" stop-color="#732A4D"/>
</linearGradient>
<linearGradient id="paint1_linear_14_5630" x1="101.678" y1="0.921875" x2="101.678" y2="26.8438" gradientUnits="userSpaceOnUse">
<stop stop-color="#CC263E"/>
<stop offset="1" stop-color="#732A4D"/>
</linearGradient>
<linearGradient id="paint2_linear_14_5630" x1="101.678" y1="0.921875" x2="101.678" y2="26.8438" gradientUnits="userSpaceOnUse">
<stop stop-color="#CC263E"/>
<stop offset="1" stop-color="#732A4D"/>
</linearGradient>
<linearGradient id="paint3_linear_14_5630" x1="101.678" y1="0.921875" x2="101.678" y2="26.8438" gradientUnits="userSpaceOnUse">
<stop stop-color="#CC263E"/>
<stop offset="1" stop-color="#732A4D"/>
</linearGradient>
<linearGradient id="paint4_linear_14_5630" x1="101.678" y1="0.921875" x2="101.678" y2="26.8438" gradientUnits="userSpaceOnUse">
<stop stop-color="#CC263E"/>
<stop offset="1" stop-color="#732A4D"/>
</linearGradient>
<linearGradient id="paint5_linear_14_5630" x1="101.678" y1="0.921875" x2="101.678" y2="26.8438" gradientUnits="userSpaceOnUse">
<stop stop-color="#CC263E"/>
<stop offset="1" stop-color="#732A4D"/>
</linearGradient>
<linearGradient id="paint6_linear_14_5630" x1="101.678" y1="0.921875" x2="101.678" y2="26.8438" gradientUnits="userSpaceOnUse">
<stop stop-color="#CC263E"/>
<stop offset="1" stop-color="#732A4D"/>
</linearGradient>
<linearGradient id="paint7_linear_14_5630" x1="101.678" y1="0.921875" x2="101.678" y2="26.8438" gradientUnits="userSpaceOnUse">
<stop stop-color="#CC263E"/>
<stop offset="1" stop-color="#732A4D"/>
</linearGradient>
<linearGradient id="paint8_linear_14_5630" x1="101.678" y1="0.921875" x2="101.678" y2="26.8438" gradientUnits="userSpaceOnUse">
<stop stop-color="#CC263E"/>
<stop offset="1" stop-color="#732A4D"/>
</linearGradient>
<linearGradient id="paint9_linear_14_5630" x1="101.678" y1="0.921875" x2="101.678" y2="26.8438" gradientUnits="userSpaceOnUse">
<stop stop-color="#CC263E"/>
<stop offset="1" stop-color="#732A4D"/>
</linearGradient>
<linearGradient id="paint10_linear_14_5630" x1="101.678" y1="0.921875" x2="101.678" y2="26.8438" gradientUnits="userSpaceOnUse">
<stop stop-color="#CC263E"/>
<stop offset="1" stop-color="#732A4D"/>
</linearGradient>
<linearGradient id="paint11_linear_14_5630" x1="101.678" y1="0.921875" x2="101.678" y2="26.8438" gradientUnits="userSpaceOnUse">
<stop stop-color="#CC263E"/>
<stop offset="1" stop-color="#732A4D"/>
</linearGradient>
<linearGradient id="paint12_linear_14_5630" x1="101.881" y1="33.375" x2="101.881" y2="55.2188" gradientUnits="userSpaceOnUse">
<stop stop-color="#CC263E"/>
<stop offset="1" stop-color="#732A4D"/>
</linearGradient>
<linearGradient id="paint13_linear_14_5630" x1="101.881" y1="33.375" x2="101.881" y2="55.2188" gradientUnits="userSpaceOnUse">
<stop stop-color="#CC263E"/>
<stop offset="1" stop-color="#732A4D"/>
</linearGradient>
<linearGradient id="paint14_linear_14_5630" x1="101.881" y1="33.375" x2="101.881" y2="55.2188" gradientUnits="userSpaceOnUse">
<stop stop-color="#CC263E"/>
<stop offset="1" stop-color="#732A4D"/>
</linearGradient>
<linearGradient id="paint15_linear_14_5630" x1="101.881" y1="33.375" x2="101.881" y2="55.2188" gradientUnits="userSpaceOnUse">
<stop stop-color="#CC263E"/>
<stop offset="1" stop-color="#732A4D"/>
</linearGradient>
<linearGradient id="paint16_linear_14_5630" x1="101.881" y1="33.375" x2="101.881" y2="55.2188" gradientUnits="userSpaceOnUse">
<stop stop-color="#CC263E"/>
<stop offset="1" stop-color="#732A4D"/>
</linearGradient>
<linearGradient id="paint17_linear_14_5630" x1="101.881" y1="33.375" x2="101.881" y2="55.2188" gradientUnits="userSpaceOnUse">
<stop stop-color="#CC263E"/>
<stop offset="1" stop-color="#732A4D"/>
</linearGradient>
<linearGradient id="paint18_linear_14_5630" x1="101.881" y1="33.375" x2="101.881" y2="55.2188" gradientUnits="userSpaceOnUse">
<stop stop-color="#CC263E"/>
<stop offset="1" stop-color="#732A4D"/>
</linearGradient>
<linearGradient id="paint19_linear_14_5630" x1="101.881" y1="33.375" x2="101.881" y2="55.2188" gradientUnits="userSpaceOnUse">
<stop stop-color="#CC263E"/>
<stop offset="1" stop-color="#732A4D"/>
</linearGradient>
<linearGradient id="paint20_linear_14_5630" x1="101.881" y1="33.375" x2="101.881" y2="55.2188" gradientUnits="userSpaceOnUse">
<stop stop-color="#CC263E"/>
<stop offset="1" stop-color="#732A4D"/>
</linearGradient>
<linearGradient id="paint21_linear_14_5630" x1="101.881" y1="33.375" x2="101.881" y2="55.2188" gradientUnits="userSpaceOnUse">
<stop stop-color="#CC263E"/>
<stop offset="1" stop-color="#732A4D"/>
</linearGradient>
<linearGradient id="paint22_linear_14_5630" x1="101.881" y1="33.375" x2="101.881" y2="55.2188" gradientUnits="userSpaceOnUse">
<stop stop-color="#CC263E"/>
<stop offset="1" stop-color="#732A4D"/>
</linearGradient>
</defs>
</svg>
