<svg width="80" height="54" viewBox="0 0 80 54" fill="none" xmlns="http://www.w3.org/2000/svg">
<g clip-path="url(#clip0_15_19921)">
<path d="M49.2387 30.58C49.0604 30.6513 48.8821 30.687 48.7008 30.7583C48.8464 30.7226 49.0248 30.6513 49.2387 30.58ZM30.8117 20.4332C30.8057 20.6725 30.8177 20.912 30.8474 21.1495C30.8415 21.2227 30.8537 21.2962 30.8831 21.3635C30.8831 21.5061 30.9187 21.6845 30.9187 21.8271L30.9544 22.0768C30.9631 22.2333 30.987 22.3885 31.0257 22.5404C31.0257 22.6118 31.0614 22.6831 31.0614 22.793C31.0971 22.9714 31.1327 23.114 31.1684 23.2924C31.1684 23.3637 31.2041 23.3994 31.2041 23.4707C31.2481 23.6887 31.3077 23.9032 31.3824 24.1127C31.3824 24.184 31.418 24.2197 31.418 24.291C31.4537 24.4366 31.528 24.6149 31.5637 24.7576L31.635 25.0073C31.6707 25.1499 31.742 25.2569 31.7777 25.3996C31.7984 25.4884 31.8346 25.573 31.8847 25.6492C31.9203 25.7206 31.9917 25.8989 32.063 26.0416L32.17 26.2942C32.2413 26.4725 32.3483 26.6152 32.4196 26.7935L32.5266 27.0075C32.598 27.1502 32.705 27.3285 32.7763 27.4711C32.812 27.5425 32.8833 27.6495 32.919 27.7208C32.9546 27.7921 33.0616 27.9348 33.1329 28.0448C33.1855 28.1327 33.2452 28.2161 33.3113 28.2944C33.3856 28.3657 33.4569 28.5084 33.5282 28.5916C33.5995 28.6658 33.6595 28.7498 33.7066 28.8413C33.7422 28.9126 33.8492 29.0196 33.9206 29.1385L34.0989 29.3882C34.24 29.5347 34.3711 29.6906 34.4912 29.8548L34.7409 30.1044L34.9578 30.3184L35.255 30.6156L35.469 30.8296L35.7662 31.0793L35.9802 31.2576C36.0872 31.3646 36.1942 31.4389 36.3012 31.5548L36.4439 31.6618C36.691 31.8724 36.9543 32.0632 37.2315 32.2324L37.3385 32.3038C37.4811 32.3751 37.5881 32.4821 37.7308 32.5534L37.9091 32.6604L38.3014 32.9101L38.4797 33.0201C38.6313 33.0887 38.7757 33.1723 38.9107 33.2697L39.0534 33.341C39.5527 33.5907 40.052 33.8403 40.5899 34.0543L40.6969 34.09L41.1606 34.2683L41.3389 34.3396C41.5 34.4043 41.6673 34.4522 41.8382 34.4823L41.9809 34.518C43.6699 35.0464 45.4301 35.312 47.1999 35.3056C53.5929 35.3056 59.1329 31.9471 61.8107 27.0521C61.7933 25.0119 61.2959 23.0045 60.3587 21.1922C59.4216 19.3799 58.0711 17.8136 56.4164 16.62V16.6557C53.8798 14.7562 50.7968 13.7282 47.6279 13.7252C45.054 13.7252 43.0182 13.9035 40.5543 15.5471C40.5543 15.5471 38.9464 16.9053 40.0163 18.0139C40.908 18.9412 42.6912 17.693 42.6912 17.693C43.8229 17.0452 45.1024 16.7002 46.4063 16.6914C48.1423 16.6452 49.836 17.23 51.1737 18.3373C52.5114 19.4445 53.4024 20.9992 53.6814 22.7132C53.9604 24.4272 53.6086 26.1842 52.6911 27.6586C51.7737 29.1329 50.3528 30.2247 48.6919 30.7315C48.6651 30.7361 48.6403 30.7485 48.6205 30.7672C48.4779 30.8029 48.3233 30.8385 48.2282 30.8742C47.7577 30.9812 47.2799 31.0527 46.7986 31.0882H46.0259L45.9902 31.1238L45.4553 31.0882H45.381L44.846 31.1238H44.739C44.5963 31.0882 44.4418 31.0882 44.311 31.0525L44.1327 30.9812C43.95 30.9519 43.7707 30.9041 43.5977 30.8385C38.3074 29.3525 35.3799 23.3369 37.0591 17.4046C38.7383 11.4723 44.3823 7.89394 49.6697 9.40376C49.8651 9.44514 50.0562 9.50484 50.2403 9.58208C50.3117 9.58208 50.3473 9.61774 50.4216 9.65341L50.814 9.83173C50.8853 9.86739 50.921 9.86739 50.9923 9.90305L51.4203 10.117L51.5273 10.1884C51.7056 10.2954 51.8839 10.3667 52.0266 10.4856C52.0622 10.5213 52.0979 10.5213 52.1365 10.5569C52.2818 10.6353 52.4141 10.7356 52.5289 10.8541L52.6715 10.9611C52.7785 11.0681 52.9212 11.1395 53.0282 11.2583L53.1352 11.3297C53.4379 11.5854 53.7248 11.8593 53.9941 12.15L54.0654 12.2213C54.1747 12.3614 54.2939 12.4935 54.4221 12.6166L54.4934 12.6879C54.8719 13.1816 55.2061 13.7077 55.492 14.2602L55.5277 14.2958C55.7559 14.731 55.9478 15.1843 56.1013 15.6511C57.8628 16.745 59.3444 18.2352 60.428 20.0031C61.5116 21.7709 62.1673 23.7674 62.3427 25.8335C62.5771 25.2735 62.7805 24.701 62.952 24.1186V24.0473C63.0233 23.7976 63.059 23.5836 63.1303 23.334C63.1303 23.2627 63.166 23.1913 63.166 23.12C63.2017 22.906 63.2373 22.7247 63.273 22.5256C63.273 22.4542 63.3087 22.3472 63.3087 22.2759C63.3443 22.0619 63.3443 21.8836 63.38 21.6815C63.3739 21.5967 63.3861 21.5115 63.4157 21.4318C63.4454 21.1465 63.4573 20.8597 63.4513 20.5729C63.4513 12.355 56.1281 5.7124 47.1256 5.7124C38.1231 5.7124 30.7969 12.3224 30.7969 20.5402" fill="#E76B25"/>
<path d="M26.3477 2.58833C26.3209 2.54672 26.309 2.52295 26.309 2.52295C26.2109 2.54375 26.2288 2.56752 26.3477 2.58833Z" fill="#E76B25"/>
<path d="M32.2294 32.2444L32.0956 32.0601C32.0572 32.0062 32.0144 31.9555 31.9678 31.9085L31.8133 31.745L31.5161 31.323C31.408 31.193 31.3088 31.056 31.2189 30.9129C31.1297 30.8029 31.0613 30.7048 31.0108 30.6157C30.8826 30.4568 30.7645 30.29 30.6571 30.1163V30.0956C30.5437 29.9342 30.4395 29.7664 30.3451 29.5932C30.2786 29.4867 30.218 29.3766 30.1638 29.2633C30.1489 29.2336 30.1251 29.195 30.1014 29.1534C30.036 29.0315 29.9676 28.9097 29.9171 28.8027L29.7566 28.4787V28.449C29.6585 28.2752 29.5712 28.0956 29.4951 27.9111L29.4237 27.7476C29.3791 27.6525 29.3375 27.5544 29.2989 27.4682C29.1837 27.2489 29.0902 27.019 29.0195 26.7817C28.9488 26.6144 28.8893 26.4426 28.8412 26.2675L28.7639 25.994L28.7491 25.9406C28.6969 25.7923 28.6523 25.6415 28.6153 25.4888L28.5737 25.3283C28.4951 25.0753 28.4296 24.8183 28.3775 24.5585C28.3524 24.4606 28.3326 24.3614 28.3181 24.2613C28.3181 24.2316 28.3032 24.2019 28.2973 24.1721C28.2765 24.0711 28.2527 23.973 28.2319 23.8749L28.1725 23.5777V23.5242C28.1309 23.3161 28.1012 23.1057 28.0833 22.8942L28.0328 22.5345V22.4186C28.0328 22.3948 28.0328 22.371 28.0328 22.3443C28.0001 22.1756 27.9792 22.0047 27.9704 21.8331C27.9406 21.523 27.9287 21.2114 27.9347 20.8999C27.9555 11.1365 36.4825 3.19805 46.9561 3.19805H47.1612C55.4563 3.19805 62.5418 8.07823 65.2345 14.8962C63.9595 8.50027 60.0809 2.351 52.08 0.555852C48.7394 -0.39522 43.7225 -0.213921 37.6802 1.74469C34.084 2.90084 27.2779 2.76709 26.3862 2.59768C26.6656 3.05836 28.5618 5.9294 32.3542 6.19094C32.3542 6.19094 31.2635 8.30707 27.5454 6.85371C20.9235 4.27096 17.8355 4.99617 15.6926 8.17632C15.6926 8.17632 24.2285 8.02178 23.1407 12.2332C22.6771 14.0403 21.0424 14.4177 19.5147 13.6123C14.5335 10.9849 13.1247 11.1573 10.0724 12.1054C7.95626 12.7623 3.77153 18.0288 0.0385742 16.0108C0.0385742 16.0108 4.6275 21.848 12.3906 18.7035C16.6913 16.9588 19.1373 18.2399 18.3556 22.374C18.1714 23.3489 17.357 23.7858 16.5308 24.2286C15.4162 24.823 13.6359 24.2643 10.5479 23.866C10.5479 23.866 13.0118 28.1131 14.7861 28.4728C16.3138 28.77 17.4997 30.0183 22.6384 27.0105C23.5449 26.4815 25.8305 26.2051 26.2465 29.195C26.6626 32.1849 19.9695 31.2963 20.0527 32.0601C20.0527 32.0601 26.9688 37.288 33.5341 33.5224L33.445 33.4421L32.2294 32.2444Z" fill="#E76B25"/>
<path d="M49.2387 30.58C49.0604 30.6513 48.8821 30.687 48.7008 30.7583C48.8464 30.7226 49.0248 30.6513 49.2387 30.58ZM30.8117 20.4332C30.8057 20.6725 30.8177 20.912 30.8474 21.1495C30.8415 21.2227 30.8537 21.2962 30.8831 21.3635C30.8831 21.5061 30.9187 21.6845 30.9187 21.8271L30.9544 22.0768C30.9631 22.2333 30.987 22.3885 31.0257 22.5404C31.0257 22.6118 31.0614 22.6831 31.0614 22.793C31.0971 22.9714 31.1327 23.114 31.1684 23.2924C31.1684 23.3637 31.2041 23.3994 31.2041 23.4707C31.2481 23.6887 31.3077 23.9032 31.3824 24.1127C31.3824 24.184 31.418 24.2197 31.418 24.291C31.4537 24.4366 31.528 24.6149 31.5637 24.7576L31.635 25.0073C31.6707 25.1499 31.742 25.2569 31.7777 25.3996C31.7984 25.4884 31.8346 25.573 31.8847 25.6492C31.9203 25.7206 31.9917 25.8989 32.063 26.0416L32.17 26.2942C32.2413 26.4725 32.3483 26.6152 32.4196 26.7935L32.5266 27.0075C32.598 27.1502 32.705 27.3285 32.7763 27.4711C32.812 27.5425 32.8833 27.6495 32.919 27.7208C32.9546 27.7921 33.0616 27.9348 33.1329 28.0448C33.1855 28.1327 33.2452 28.2161 33.3113 28.2944C33.3856 28.3657 33.4569 28.5084 33.5282 28.5916C33.5995 28.6658 33.6595 28.7498 33.7066 28.8413C33.7422 28.9126 33.8492 29.0196 33.9206 29.1385L34.0989 29.3882C34.24 29.5347 34.3711 29.6906 34.4912 29.8548L34.7409 30.1044L34.9578 30.3184L35.255 30.6156L35.469 30.8296L35.7662 31.0793L35.9802 31.2576C36.0872 31.3646 36.1942 31.4389 36.3012 31.5548L36.4439 31.6618C36.691 31.8724 36.9543 32.0632 37.2315 32.2324L37.3385 32.3038C37.4811 32.3751 37.5881 32.4821 37.7308 32.5534L37.9091 32.6604L38.3014 32.9101L38.4797 33.0201C38.6313 33.0887 38.7757 33.1723 38.9107 33.2697L39.0534 33.341C39.5527 33.5907 40.052 33.8403 40.5899 34.0543L40.6969 34.09L41.1606 34.2683L41.3389 34.3396C41.5 34.4043 41.6673 34.4522 41.8382 34.4823L41.9809 34.518C43.6699 35.0464 45.4301 35.312 47.1999 35.3056C53.5929 35.3056 59.1329 31.9471 61.8107 27.0521C61.7933 25.0119 61.2959 23.0045 60.3587 21.1922C59.4216 19.3799 58.0711 17.8136 56.4164 16.62V16.6557C53.8798 14.7562 50.7968 13.7282 47.6279 13.7252C45.054 13.7252 43.0182 13.9035 40.5543 15.5471C40.5543 15.5471 38.9464 16.9053 40.0163 18.0139C40.908 18.9412 42.6912 17.693 42.6912 17.693C43.8229 17.0452 45.1024 16.7002 46.4063 16.6914C48.1423 16.6452 49.836 17.23 51.1737 18.3373C52.5114 19.4445 53.4024 20.9992 53.6814 22.7132C53.9604 24.4272 53.6086 26.1842 52.6911 27.6586C51.7737 29.1329 50.3528 30.2247 48.6919 30.7315C48.6651 30.7361 48.6403 30.7485 48.6205 30.7672C48.4779 30.8029 48.3233 30.8385 48.2282 30.8742C47.7577 30.9812 47.2799 31.0527 46.7986 31.0882H46.0259L45.9902 31.1238L45.4553 31.0882H45.381L44.846 31.1238H44.739C44.5963 31.0882 44.4418 31.0882 44.311 31.0525L44.1327 30.9812C43.95 30.9519 43.7707 30.9041 43.5977 30.8385C38.3074 29.3525 35.3799 23.3369 37.0591 17.4046C38.7383 11.4723 44.3823 7.89394 49.6697 9.40376C49.8651 9.44514 50.0562 9.50484 50.2403 9.58208C50.3117 9.58208 50.3473 9.61774 50.4216 9.65341L50.814 9.83173C50.8853 9.86739 50.921 9.86739 50.9923 9.90305L51.4203 10.117L51.5273 10.1884C51.7056 10.2954 51.8839 10.3667 52.0266 10.4856C52.0622 10.5213 52.0979 10.5213 52.1365 10.5569C52.2818 10.6353 52.4141 10.7356 52.5289 10.8541L52.6715 10.9611C52.7785 11.0681 52.9212 11.1395 53.0282 11.2583L53.1352 11.3297C53.4379 11.5854 53.7248 11.8593 53.9941 12.15L54.0654 12.2213C54.1747 12.3614 54.2939 12.4935 54.4221 12.6166L54.4934 12.6879C54.8719 13.1816 55.2061 13.7077 55.492 14.2602L55.5277 14.2958C55.7559 14.731 55.9478 15.1843 56.1013 15.6511C57.8628 16.745 59.3444 18.2352 60.428 20.0031C61.5116 21.7709 62.1673 23.7674 62.3427 25.8335C62.5771 25.2735 62.7805 24.701 62.952 24.1186V24.0473C63.0233 23.7976 63.059 23.5836 63.1303 23.334C63.1303 23.2627 63.166 23.1913 63.166 23.12C63.2017 22.906 63.2373 22.7247 63.273 22.5256C63.273 22.4542 63.3087 22.3472 63.3087 22.2759C63.3443 22.0619 63.3443 21.8836 63.38 21.6815C63.3739 21.5967 63.3861 21.5115 63.4157 21.4318C63.4454 21.1465 63.4573 20.8597 63.4513 20.5729C63.4513 12.355 56.1281 5.7124 47.1256 5.7124C38.1231 5.7124 30.7969 12.3224 30.7969 20.5402" fill="#E76B25"/>
<path d="M7.7366 40.1738C9.11565 40.1738 11.9748 40.587 11.633 42.1652L11.3061 43.8146H9.05919L9.19889 43.0746C9.3148 42.4356 8.26267 42.3078 7.69203 42.3078C5.31435 42.3078 4.0512 44.3704 4.0512 46.0913C4.0512 47.4555 4.64562 48.5522 6.58342 48.5522C7.29376 48.5522 8.39047 48.3798 8.50341 47.8121L8.64606 47.1137H6.99655L7.36509 45.265H11.2764L10.6225 48.5671C10.3253 50.1601 8.01896 50.6861 6.31297 50.6861C3.34087 50.6861 1.4209 48.8494 1.4209 46.1894C1.4209 42.8904 4.20872 40.1738 7.7366 40.1738Z" fill="#E76B25"/>
<path d="M12.9258 45.3662H17.3929L16.9798 47.5002H12.5127L12.9258 45.3662Z" fill="#E76B25"/>
<path d="M18.4714 48.6648H19.5978L20.849 42.1916H19.7256L20.0793 40.3429H24.3621C25.1378 40.3239 25.9112 40.4344 26.6506 40.6698C28.2585 41.2405 29.1412 42.5066 29.1412 44.4533C29.1412 46.9291 27.6759 49.277 25.3993 50.1449C24.6656 50.4074 23.8898 50.5323 23.1108 50.5134H18.1177L18.4714 48.6648ZM23.0514 48.5221C23.5962 48.5326 24.1359 48.4144 24.6266 48.1774C25.8154 47.5829 26.5733 46.1444 26.5733 44.6376C26.5733 43.5409 26.1899 42.8722 25.4647 42.5571C25.0769 42.3977 24.6591 42.3247 24.2402 42.3431H23.3486L22.1597 48.531L23.0514 48.5221Z" fill="#E76B25"/>
<path d="M33.8908 43.0181C35.9713 43.0181 37.0204 44.2069 37.0204 45.8921C37.0168 46.2141 36.9739 46.5345 36.8926 46.8461C36.848 47.0007 36.8064 47.1434 36.75 47.3009H32.1402V47.3424C32.1402 47.3841 32.1402 47.3989 32.1402 47.4435C32.1402 48.1806 32.7079 48.6502 33.5758 48.6502C34.0912 48.6311 34.5971 48.5056 35.0618 48.2816C35.3 48.1797 35.5279 48.0553 35.7424 47.9101L36.3695 49.732C36.0979 49.9105 35.8127 50.0676 35.5165 50.2016C34.8573 50.5133 34.1385 50.6785 33.4093 50.6861C30.9068 50.6861 29.6704 49.2 29.6704 47.4851C29.6704 44.9381 31.4745 43.027 33.8938 43.027L33.8908 43.0181ZM34.6041 45.9575C34.6017 45.9192 34.6068 45.8809 34.619 45.8445C34.6258 45.7873 34.6258 45.7294 34.619 45.6721C34.6267 45.5668 34.612 45.4611 34.5756 45.3619C34.5393 45.2627 34.4822 45.1725 34.4083 45.0971C34.3343 45.0217 34.2451 44.963 34.1467 44.9248C34.0482 44.8866 33.9427 44.8699 33.8373 44.8756C33.5185 44.8848 33.2108 44.9944 32.9578 45.1886C32.7049 45.3828 32.5197 45.6519 32.4285 45.9575H34.6041Z" fill="#E76B25"/>
<path d="M38.0576 47.8122L39.1661 42.1236H38.1705L38.5123 40.3403H41.9688L40.5749 47.5952C40.5342 47.7779 40.5103 47.964 40.5036 48.151C40.5036 48.4928 40.6611 48.6206 41.0594 48.6206C41.1575 48.6206 41.2169 48.6206 41.2734 48.6206H41.3566L40.9732 50.5554L40.7592 50.5822C40.6047 50.5822 40.462 50.5822 40.2331 50.5822C39.1097 50.5822 37.9595 50.3563 37.9595 48.7335C37.9589 48.4228 37.9918 48.1129 38.0576 47.8092" fill="#E76B25"/>
<path d="M43.1493 47.9551L43.7437 44.983H42.7451L43.0869 43.1997H46.5435L45.6518 47.7827C45.6111 47.9348 45.5921 48.0919 45.5954 48.2493C45.5954 48.5792 45.7499 48.7635 46.1482 48.7635C46.2046 48.7635 46.276 48.7635 46.3354 48.7635H46.4186L46.0768 50.5467L45.8658 50.5764C45.7083 50.5764 45.5508 50.5764 45.3398 50.5764C44.2163 50.5764 43.0483 50.4754 43.0483 48.8823C43.0556 48.5762 43.0934 48.2716 43.1612 47.9729L43.1493 47.9551ZM44.671 40.3613H47.0725L46.704 42.2813H44.2995L44.671 40.3613Z" fill="#E76B25"/>
<path d="M48.3828 44.9678H47.5596L47.9133 43.1846H51.7413L51.3847 44.9678H50.7308L51.0577 47.613C51.0877 47.8296 51.0976 48.0485 51.0875 48.2669C51.0943 48.3658 51.0943 48.4651 51.0875 48.5641H51.1439C51.1718 48.4632 51.2056 48.3639 51.245 48.2669C51.3304 48.043 51.4297 47.8246 51.5422 47.613L52.8945 44.9678H52.2406L52.5943 43.1846H56.565L56.2084 44.9678H55.3821L52.2674 50.5138H49.3666L48.3828 44.9678Z" fill="#E76B25"/>
<path d="M60.5182 43.0181C62.5987 43.0181 63.6448 44.2069 63.6448 45.8921C63.6412 46.2141 63.5983 46.5345 63.517 46.8461C63.4793 47.0006 63.4317 47.1525 63.3744 47.3009H58.7676V47.3424C58.7676 47.3841 58.7676 47.3989 58.7676 47.4435C58.7676 48.1806 59.3353 48.6502 60.2061 48.6502C60.7216 48.6312 61.2275 48.5057 61.6922 48.2816C61.9313 48.1798 62.1602 48.0554 62.3758 47.9101L62.9999 49.732C62.7282 49.9105 62.443 50.0676 62.1469 50.2016C61.4886 50.5129 60.7708 50.6781 60.0426 50.6861C57.5401 50.6861 56.3008 49.2 56.3008 47.4851C56.3008 44.9381 58.1078 43.027 60.5271 43.027L60.5182 43.0181ZM61.2374 45.9575C61.2351 45.9192 61.2401 45.8809 61.2523 45.8445C61.2579 45.7872 61.2579 45.7295 61.2523 45.6721C61.2601 45.5668 61.2453 45.4611 61.209 45.3619C61.1726 45.2627 61.1156 45.1725 61.0416 45.0971C60.9676 45.0217 60.8784 44.963 60.78 44.9248C60.6815 44.8866 60.5761 44.8699 60.4706 44.8756C59.7454 44.8756 59.2818 45.3749 59.0619 45.9575H61.2374Z" fill="#E76B25"/>
<path d="M65.6418 45.2799C65.6834 45.1224 65.6418 44.9827 65.3862 44.9827H64.7026L65.0592 43.1994H67.3775C67.9719 43.1994 68.2691 43.4283 68.2691 43.8681C68.2399 44.2161 68.1732 44.5599 68.07 44.8935H68.0967C68.5663 43.8978 69.5828 43.0716 70.629 43.0716C70.7278 43.0608 70.8274 43.0608 70.9262 43.0716C70.9676 43.084 71.0108 43.089 71.054 43.0865L70.5844 45.5058L70.4566 45.476C70.3382 45.4624 70.219 45.4574 70.0999 45.4612C69.3747 45.4612 67.9362 45.9605 67.5974 47.8953L67.0981 50.5108H64.6372L65.6418 45.2799Z" fill="#E76B25"/>
<path d="M71.7228 51.5243C71.9757 51.5464 72.23 51.5034 72.4615 51.3993C72.6931 51.2952 72.8941 51.1336 73.0454 50.9298L73.09 50.8585L71.8239 44.9708H70.9917L71.3335 43.1875H75.2894L74.9476 44.9708H74.2343L74.6058 47.6873C74.6371 47.8988 74.6421 48.1135 74.6206 48.3263L74.5909 48.6235H74.6474L74.7633 48.3263C74.8485 48.1071 74.9478 47.8937 75.0605 47.6873L76.4544 44.9708H75.7857L76.1275 43.1875H79.9912L79.6494 44.9708H78.8945L75.328 51.1587C74.261 52.9925 73.0097 53.5037 71.6723 53.5037C70.9887 53.5037 71.3305 51.5272 71.7139 51.5272" fill="#E76B25"/>
</g>
<defs>
<clipPath id="clip0_15_19921">
<rect width="80" height="53.5037" fill="white"/>
</clipPath>
</defs>
</svg>
