<svg width="294" height="33" viewBox="0 0 294 33" fill="none" xmlns="http://www.w3.org/2000/svg">
<path d="M258.575 4.32911H277.217C279.253 4.30722 281.269 4.73114 283.124 5.57111C289.617 8.54059 289.342 16.4619 284.455 19.9371C283.617 20.5358 282.666 20.9808 281.691 21.5553C282.861 23.744 284.094 25.9245 286.073 27.5549C287.918 29.072 289.973 29.5575 292.263 28.5097C291.858 29.6829 290.911 30.5325 289.342 31.0422C286.065 32.1143 282.828 31.6895 279.66 30.5972C276.703 29.5737 274.223 27.8867 272.722 25.0305C272.496 24.5967 272.302 24.1464 272.144 23.6833C271.707 22.4332 271.739 22.4291 270.263 22.6112C270.473 25.3824 270.331 28.2103 271.881 30.8076H258.437C259.627 28.8495 259.942 26.7256 259.975 24.5855C260.051 19.9573 260.023 15.3291 259.975 10.7009C259.945 9.5981 259.801 8.50128 259.546 7.42803C259.319 6.38427 258.919 5.3931 258.575 4.32911ZM270.307 16.118C272.281 16.025 274.235 15.9521 276.185 15.8227C276.58 15.7564 276.955 15.5984 277.278 15.3615C277.67 15.1135 277.982 14.7584 278.179 14.3383C278.375 13.9182 278.447 13.4505 278.386 12.9907C278.313 12.0238 277.666 11.506 276.849 11.2309C274.701 10.4987 272.488 10.9315 270.242 10.8021C270.242 12.4203 270.242 13.9091 270.242 15.3817C270.25 15.5597 270.279 15.7377 270.315 16.118H270.307ZM56.8973 4.38575C58.641 7.81238 58.4144 11.417 58.3982 15.0176H49.9632C49.9632 11.3765 49.7528 7.75979 51.4843 4.38575H38.1217C39.4365 6.7848 39.6833 9.33757 39.7116 11.9187C39.748 15.2603 39.7116 18.602 39.7116 21.9477C39.7116 24.986 39.6064 28.0161 38.1298 30.755H51.4803C49.7528 27.385 49.947 23.833 49.9389 20.2728H58.4063C58.4063 23.8815 58.6207 27.4416 56.8811 30.7914H70.3449C69.3821 29.1119 68.8771 27.2091 68.8804 25.2732C68.7752 20.7057 68.7226 16.1382 68.7712 11.5707C68.7954 9.14336 69.022 6.67556 70.3287 4.40598L56.8973 4.38575ZM170.818 31.6248C166.246 31.5075 161.695 30.2088 158.029 26.7701C152.612 21.6645 152.612 13.9819 157.872 8.76308C164.482 2.22133 177.473 2.11211 184.204 8.54462C190.273 14.3541 189.561 23.3434 182.631 28.1334C179.2 30.5123 175.349 31.5722 170.818 31.6248ZM165.449 17.4288C165.638 18.8668 165.902 20.2941 166.238 21.705C166.909 24.0191 168.58 25.2692 170.781 25.346C173.301 25.435 175.118 24.367 175.992 22.057C177.125 19.0718 177.112 15.7727 175.955 12.7966C175.187 10.709 173.33 9.66122 170.975 9.72191C168.621 9.78259 166.93 10.8708 166.262 13.1121C165.833 14.4795 165.704 15.9279 165.433 17.4288H165.449ZM34.8569 13.3468C33.801 9.22428 32.7167 5.10587 31.7175 0.971262C31.5152 0.162141 31.143 0.00435672 30.3905 0.00435672C21.7761 0.0286304 13.1616 0.0286304 4.5472 0.00435672C4.33467 -0.0279054 4.11804 -0.021055 3.90798 0.0245798C3.69357 0.113583 3.40633 0.291596 3.35779 0.485785C2.22502 4.93595 1.12461 9.38612 0.0161133 13.8363C2.78331 10.1952 6.0117 7.51705 11.0647 8.09557V9.10697C11.0647 13.2173 11.1092 17.3236 11.0647 21.4299C11.0161 24.6421 10.8502 27.8543 9.20368 30.7348H25.7826C24.488 28.6755 24.0753 26.4302 24.0227 24.1647C23.8973 18.958 23.9175 13.7473 23.8852 8.53652C23.8974 8.36636 23.9286 8.1981 23.9782 8.03487C27.951 8.10365 30.7344 8.91278 34.9297 13.9374C34.8852 13.6421 34.8852 13.4884 34.8407 13.3468H34.8569ZM92.8668 13.634C91.026 14.965 88.9992 14.8477 86.9481 14.8477V11.2066H92.5553C95.1849 11.2066 97.855 11.0448 100.011 13.1121V4.4262H74.8598C76.211 6.85356 76.4416 9.4387 76.4781 12.0562C76.5104 15.1228 76.4781 18.1893 76.4781 21.2559C76.4781 24.4924 76.5266 27.7491 74.9084 30.7267C74.9813 30.7583 75.0572 30.7827 75.1349 30.7995C83.5363 30.7995 91.939 30.7995 100.343 30.7995C100.881 30.7995 100.998 30.5487 101.1 30.1077C101.688 27.5374 102.29 24.9752 102.908 22.421C103.211 21.1467 103.543 19.8804 103.863 18.6101C103.63 18.7185 103.43 18.8876 103.284 19.0996C101.512 21.4056 99.3479 23.3394 96.4067 23.7197C93.2916 24.1243 90.1077 24.0029 86.8995 24.1243V19.6741C89.0113 19.7469 91.0665 19.7509 92.8425 21.2316L92.8668 13.634ZM252.033 30.8157C252.591 30.8157 252.668 30.5163 252.765 30.0956C253.353 27.5603 253.951 25.0264 254.557 22.4939C254.865 21.2033 255.197 19.9209 255.52 18.6344C255.279 18.7386 255.073 18.9117 254.93 19.132C252.579 22.1338 249.646 24.0474 245.677 24.0272C243.711 24.0272 241.741 24.0272 239.771 24.0272H238.517V19.7307C240.592 19.662 242.51 19.7307 244.504 21.1264V13.6461C242.651 14.965 240.633 14.8598 238.573 14.8275V11.2633C238.706 11.2295 238.841 11.2052 238.978 11.1904C241.535 11.1904 244.096 11.0772 246.64 11.243C247.979 11.328 249.302 11.862 250.605 12.2706C250.996 12.4696 251.353 12.7306 251.661 13.0433V4.43832H226.497C227.711 6.51777 228.039 8.73882 228.079 10.976C228.156 15.2684 228.148 19.5648 228.079 23.8572C228.051 26.2199 227.763 28.5582 226.461 30.8076C235.09 30.8076 243.553 30.7995 252.017 30.8157H252.033ZM137.437 22.1904C137.437 17.623 137.405 13.0514 137.437 8.48393C137.44 7.25537 137.598 6.03209 137.907 4.84288C138.352 3.22464 139.023 1.65092 139.581 0.105497H122.914C123.286 1.19781 123.723 2.21326 123.965 3.26916C124.255 4.36674 124.423 5.49275 124.467 6.62701C124.54 11.8863 124.596 17.1132 124.544 22.3563C124.516 25.2611 124.257 28.1618 122.667 30.8076H148.818L152.147 17.6432C150.577 20.4751 148.154 22.2107 144.998 22.6274C142.547 22.951 140.039 22.858 137.474 22.9551C137.462 22.5546 137.437 22.3725 137.437 22.1904ZM190.936 7.73145C191.69 8.99282 192.317 10.3264 192.805 11.7123C193.975 14.9488 195.035 18.1853 196.151 21.4218C197.195 24.46 198.356 27.4902 197.272 30.7671H214.51C213.749 28.182 214.178 25.7304 215.02 23.3192C216.007 20.4873 217.006 17.6553 218.018 14.8234C219.389 11.0165 220.481 7.05585 223.908 4.37765H212.532C213.652 5.9959 213.616 7.67078 213.046 9.36589C211.832 13.0069 210.553 16.648 209.303 20.3133L208.235 23.4405C208.082 23.036 207.997 22.8499 207.928 22.6314C206.475 18.4038 205.043 14.168 203.571 9.94846C202.903 8.03489 202.644 6.16177 203.89 4.28461H188.278C189.156 5.4457 190.18 6.50968 190.936 7.73145Z" fill="url(#paint0_linear_14_5006)"/>
<g style="mix-blend-mode:overlay">
<g style="mix-blend-mode:overlay">
<path d="M259.922 5.68017H278.584C280.62 5.65828 282.636 6.0822 284.491 6.92218C290.964 9.89165 290.705 17.8129 285.822 21.2881C284.981 21.8869 284.034 22.3319 283.059 22.9064C284.228 25.095 285.462 27.2756 287.44 28.902C289.285 30.4231 291.34 30.9248 293.63 29.8608C293.226 31.034 292.279 31.8836 290.709 32.3933C287.432 33.4654 284.196 33.0406 281.028 31.9443C278.071 30.9248 275.591 29.2377 274.09 26.3815C273.863 25.9471 273.669 25.4969 273.507 25.0344C273.074 23.7843 273.103 23.7802 271.63 23.9623C271.84 26.7335 271.699 29.5614 273.248 32.1587H259.789C260.978 30.2006 261.294 28.0766 261.326 25.9365C261.399 21.3083 261.374 16.6802 261.326 12.052C261.294 10.9493 261.151 9.85273 260.897 8.77912C260.671 7.73535 260.27 6.74417 259.922 5.68017ZM271.654 17.4691C273.633 17.376 275.587 17.3032 277.537 17.1737C277.932 17.107 278.307 16.9475 278.629 16.7085C279.022 16.463 279.336 16.109 279.533 15.689C279.73 15.2691 279.801 14.8012 279.737 14.3418C279.665 13.3749 279.013 12.8571 278.2 12.5779C276.052 11.8497 273.839 12.2826 271.594 12.1491C271.594 13.7916 271.594 15.2602 271.594 16.7328C271.602 16.9108 271.63 17.0928 271.662 17.4691H271.654ZM58.2487 5.73682C59.9924 9.16344 59.7658 12.7681 59.7496 16.3687H51.3145C51.3145 12.7276 51.1042 9.11085 52.8357 5.73682H39.4852C40.8 8.13586 41.0468 10.6886 41.0751 13.2697C41.1115 16.6114 41.0751 19.9531 41.0751 23.2948C41.0751 26.333 40.9659 29.3631 39.4933 32.1061H52.8438C51.1163 28.7361 51.3105 25.184 51.3024 21.6239H59.7699C59.7699 25.2285 59.9802 28.7927 58.2447 32.1182H71.7003C70.7377 30.4401 70.2326 28.5386 70.2358 26.6041C70.1307 22.0366 70.078 17.4691 70.1266 12.9016C70.1509 10.4742 70.3774 8.0064 71.6842 5.73682H58.2487ZM172.145 32.9637C167.573 32.8464 163.022 31.5478 159.356 28.109C153.964 23.0237 153.96 15.3411 159.231 10.1223C165.838 3.58052 178.832 3.47127 185.564 9.90378C191.632 15.7133 190.92 24.7026 183.99 29.4926C180.551 31.8633 176.7 32.9233 172.153 32.9759L172.145 32.9637ZM166.772 18.7798C166.968 20.2181 167.238 21.6454 167.581 23.056C168.253 25.3701 169.924 26.6202 172.124 26.6971C174.645 26.7861 176.461 25.7181 177.335 23.408C178.465 20.4223 178.452 17.1243 177.299 14.1476C176.53 12.0601 174.673 11.0123 172.319 11.073C169.964 11.1337 168.273 12.2219 167.605 14.4632C167.177 15.8306 167.055 17.2789 166.772 18.7798ZM36.188 14.6978C35.1362 10.5754 34.0519 6.45693 33.0486 2.32232C32.8504 1.5132 32.4782 1.35542 31.7257 1.35542C23.114 1.37969 14.4995 1.37969 5.8824 1.35542C5.67 1.32114 5.453 1.32803 5.2432 1.37567C5.02474 1.46467 4.74154 1.64266 4.69299 1.83685C3.56022 6.28701 2.45577 10.7372 1.35132 15.1873C4.11851 11.5463 7.34691 8.86406 12.3958 9.44663V10.458C12.3958 14.5643 12.4444 18.6747 12.3958 22.781C12.3473 25.9932 12.1814 29.2054 10.5348 32.0858H27.1461C25.8515 30.0266 25.4389 27.7813 25.3863 25.5158C25.2608 20.3091 25.2811 15.0943 25.2487 9.88356C25.2613 9.71345 25.2925 9.54523 25.3418 9.38191C29.3145 9.45473 32.0979 10.2638 36.2932 15.2885C36.2325 14.9932 36.2244 14.8394 36.188 14.6978ZM94.202 14.9851C92.3612 16.3161 90.3344 16.1987 88.2833 16.1987V12.5577H93.8905C96.5201 12.5577 99.1902 12.3959 101.347 14.4632V5.76514H76.2112C77.5624 8.1925 77.789 10.7776 77.8294 13.3911C77.8618 16.4577 77.8294 19.5283 77.8294 22.5948C77.8294 25.8313 77.878 29.0678 76.2597 32.0656C76.3326 32.0966 76.4085 32.1196 76.4863 32.1344C84.8877 32.1344 93.2904 32.1344 101.694 32.1344C102.228 32.1344 102.35 31.8836 102.451 31.4426C103.036 28.875 103.639 26.3128 104.259 23.7559C104.563 22.4816 104.895 21.2153 105.21 19.945C104.979 20.0545 104.78 20.2234 104.636 20.4345C102.864 22.7405 100.699 24.6743 97.7581 25.0546C94.643 25.4591 91.4591 25.3378 88.2509 25.4591V21.009C90.3627 21.0858 92.4179 21.0899 94.1939 22.5665L94.202 14.9851ZM253.368 32.1668C253.927 32.1668 254.003 31.8674 254.1 31.4466C254.683 28.91 255.286 26.3775 255.893 23.8449C256.2 22.5544 256.532 21.2719 256.851 19.9814C256.611 20.0882 256.408 20.2625 256.265 20.483C253.914 23.4849 250.981 25.3984 247.013 25.3742C245.042 25.3742 243.076 25.3742 241.106 25.3742H239.852V21.0818C241.927 21.013 243.845 21.0818 245.839 22.4775V14.9932C243.986 16.3161 241.968 16.2068 239.909 16.1785V12.6143C240.041 12.5786 240.176 12.5542 240.313 12.5415C242.866 12.5415 245.431 12.4283 247.975 12.5941C249.315 12.6791 250.633 13.2131 251.94 13.6217C252.332 13.8193 252.689 14.0804 252.996 14.3944V5.78941H227.861C229.074 7.86885 229.402 10.0899 229.443 12.3271C229.519 16.6195 229.511 20.9159 229.443 25.2083C229.414 27.5709 229.127 29.9093 227.824 32.1546C236.441 32.1546 244.905 32.1506 253.368 32.1668ZM138.789 23.5415C138.789 18.97 138.756 14.4025 138.789 9.83097C138.792 8.60241 138.949 7.37911 139.258 6.18992C139.703 4.57168 140.374 2.99795 140.929 1.44849H124.293C124.665 2.54484 125.102 3.56027 125.345 4.61618C125.633 5.71258 125.8 6.83724 125.843 7.97C125.92 13.2293 125.976 18.4603 125.924 23.7034C125.895 26.6081 125.632 29.5047 124.046 32.1546H150.185C151.299 27.7557 152.407 23.3676 153.511 18.9902C151.941 21.8221 149.522 23.5577 146.366 23.9744C143.91 24.2981 141.406 24.205 138.841 24.3021C138.813 23.9056 138.789 23.7236 138.789 23.5415ZM192.288 9.08254C193.043 10.3427 193.668 11.6766 194.153 13.0634C195.326 16.2999 196.386 19.5364 197.502 22.7729C198.546 25.8111 199.703 28.8413 198.623 32.1182H215.87C215.109 29.529 215.538 27.0814 216.379 24.6702C217.366 21.8383 218.358 19.0064 219.377 16.1745C220.749 12.3676 221.841 8.40691 225.267 5.72872H213.883C215 7.34696 214.967 9.02184 214.397 10.7129C213.183 14.3539 211.905 18.0152 210.655 21.6644L209.587 24.7916C209.433 24.3871 209.348 24.201 209.279 23.9825C207.827 19.7549 206.395 15.5191 204.922 11.2995C204.255 9.38595 203.992 7.51283 205.242 5.6559H189.63C190.508 6.79676 191.531 7.85672 192.288 9.08254Z" fill="white"/>
</g>
</g>
<defs>
<linearGradient id="paint0_linear_14_5006" x1="146.888" y1="58.0345" x2="145.435" y2="-13.4675" gradientUnits="userSpaceOnUse">
<stop offset="0.43" stop-color="#A14259"/>
<stop offset="0.52" stop-color="#A6495C"/>
<stop offset="0.65" stop-color="#B35D63"/>
<stop offset="0.8" stop-color="#C87E6E"/>
<stop offset="0.98" stop-color="#E5AC7E"/>
<stop offset="1" stop-color="#E9B280"/>
</linearGradient>
</defs>
</svg>
