<svg width="263" height="33" viewBox="0 0 263 33" fill="none" xmlns="http://www.w3.org/2000/svg">
<path fill-rule="evenodd" clip-rule="evenodd" d="M141.1 22.3864C141.104 22.463 141.108 22.5396 141.112 22.616C141.118 22.7262 141.124 22.8363 141.129 22.9461C141.291 26.08 141.445 29.0828 143.089 31.8538H126.522C127.649 30.0413 128.033 28.0388 128.256 25.995C128.379 24.9561 128.446 23.9114 128.458 22.8654C128.458 17.564 128.458 12.2667 128.343 6.96944C128.289 4.55821 127.86 2.18414 126.51 0H155.756L159.058 13.2659C159.006 13.2398 158.963 13.2227 158.93 13.2093C158.879 13.1888 158.849 13.1769 158.839 13.1544C157.048 9.70271 153.99 8.34846 150.325 8.19982C148.244 8.117 146.158 8.1369 144.048 8.15704C143.107 8.16602 142.161 8.17505 141.207 8.17505V14.6821C143.944 15.3716 150.089 14.649 153.028 13.2535V24.3311C149.681 22.4609 146.093 22.4309 142.383 22.3999C141.957 22.3964 141.529 22.3928 141.1 22.3864ZM39.3084 4.55823H53.106C51.4871 7.71123 51.5007 11.0743 51.5145 14.4971V14.4974V14.4977V14.498V14.4983V14.4987C51.5159 14.8537 51.5174 15.2095 51.517 15.5657H60.2462C60.2462 15.1782 60.2488 14.7903 60.2515 14.4023V14.4019V14.4014V14.401V14.4005V14.4001C60.2739 11.0672 60.2963 7.72329 58.6737 4.55823H72.5291C71.1918 6.89101 70.9525 9.42198 70.9194 11.9488C70.8617 16.4905 70.9194 21.0322 70.9896 25.5739C70.9567 27.7829 71.4865 29.964 72.5291 31.9116H58.6613C60.2789 28.823 60.264 25.5328 60.2489 22.1918V22.1904V22.1891V22.1877V22.1863V22.1849C60.2471 21.7944 60.2454 21.4032 60.2462 21.0116H51.5459C51.5433 21.2208 51.5403 21.43 51.5374 21.6391L51.5373 21.6428L51.5373 21.6464L51.5372 21.65L51.5372 21.6536L51.5371 21.6571C51.4878 25.1357 51.4388 28.5978 53.1101 31.8951H39.3084C40.6457 29.4756 40.9263 26.8703 40.9594 24.232C41.0006 20.2353 41.0006 16.2442 40.9594 12.2585C40.9263 9.60365 40.6498 6.99835 39.3084 4.55823ZM165.047 27.7497C168.807 31.2963 173.471 32.6299 178.139 32.7579C182.873 32.7166 186.855 31.6143 190.446 29.1411C197.545 24.1865 198.284 14.9008 192.064 8.90991C185.167 2.26252 171.836 2.30792 164.981 9.00073C159.442 14.4095 159.417 22.4359 165.047 27.7497ZM172.875 19.4424C172.808 18.9922 172.74 18.5406 172.662 18.0883C172.747 17.6141 172.819 17.1403 172.891 16.6699C173.051 15.6164 173.208 14.5795 173.508 13.592C174.205 11.2798 175.955 10.1527 178.386 10.1031C180.817 10.0536 182.716 11.1436 183.504 13.3112C184.673 16.3653 184.692 19.7403 183.558 22.8075C182.674 25.2476 180.772 26.3748 178.134 26.2716C175.844 26.1849 174.119 24.8389 173.433 22.3905C173.169 21.4192 173.023 20.4343 172.875 19.4424ZM215.123 32.7456C210.475 32.6956 206.009 30.9313 202.58 27.791C196.934 22.4814 196.947 14.4632 202.477 9.04208C209.312 2.33688 222.652 2.27495 229.556 8.90995C235.818 14.9256 235.058 24.232 227.906 29.1783C224.476 31.5234 220.452 32.7456 215.123 32.7456ZM210.386 19.3635L210.386 19.3641C210.516 20.3289 210.643 21.2752 210.88 22.1923C211.537 24.7357 213.299 26.1725 215.639 26.2633C218.351 26.3707 220.225 25.1981 221.133 22.63C222.189 19.6399 222.161 16.3738 221.054 13.4021C220.266 11.1725 218.384 10.0495 215.907 10.0991C213.431 10.1486 211.693 11.2964 210.996 13.6663C210.708 14.6404 210.557 15.6579 210.408 16.6738L210.408 16.674L210.408 16.6743L210.407 16.6745C210.341 17.1268 210.274 17.5787 210.195 18.0264C210.267 18.4753 210.327 18.9213 210.386 19.3635ZM9.43915 31.9198H26.6087C25.41 29.8093 24.7707 27.4272 24.7514 24.9999C24.6895 20.9745 24.6694 16.9491 24.6493 12.9237C24.6426 11.5817 24.6359 10.2396 24.6276 8.89757C24.6425 8.70086 24.6757 8.50597 24.7267 8.31542C26.9926 8.35257 29.2172 8.69526 31.0291 9.92977C32.302 10.7971 33.4445 11.8437 34.564 12.8692L34.5641 12.8693C35.0381 13.3035 35.508 13.7339 35.9818 14.1453C35.9818 14.2155 36.0025 14.1164 35.9818 14.0297C35.6385 12.6785 35.2937 11.3277 34.9488 9.97676L34.9487 9.97626L34.9486 9.97581C34.1576 6.87715 33.3664 3.77807 32.5933 0.672977C32.4571 0.078428 32.1104 0.037149 31.6317 0.037149C22.5681 0.0591694 13.4963 0.0591694 4.41622 0.037149C3.73521 0.0330202 3.49996 0.264224 3.34725 0.90419C2.6078 3.97254 1.84716 7.03452 1.08659 10.0962L1.08657 10.0963L1.08645 10.0968C0.785762 11.3072 0.485085 12.5176 0.185734 13.7283C0.153386 13.8552 0.128537 13.9837 0.0921969 14.1715C0.0682597 14.2953 0.0393365 14.4448 0 14.6366C2.89737 10.5656 6.21573 7.82409 11.3707 8.41864C11.3751 8.47739 11.3811 8.53458 11.387 8.59075C11.3976 8.69247 11.4079 8.79088 11.4079 8.8893C11.4079 10.2701 11.4137 11.6512 11.4195 13.0326V13.0328V13.033V13.0331V13.0331C11.4332 16.3151 11.447 19.5985 11.3831 22.8819C11.3212 25.9785 11.0901 29.0833 9.43915 31.9198ZM103.112 13.6498C102.555 13.0436 101.878 12.5596 101.125 12.2284C100.371 11.8972 99.5565 11.7261 98.7333 11.7258C96.6272 11.6708 94.519 11.6828 92.3903 11.6948H92.3903C91.4821 11.7 90.5703 11.7052 89.6532 11.7052V15.2435C91.56 15.6151 94.0612 15.355 95.7699 14.1824V21.9735C93.9661 20.4897 91.8515 20.438 89.6663 20.3846L89.6367 20.3839V24.9876C90.6299 24.9573 91.6192 24.9482 92.6042 24.9392C94.849 24.9185 97.0713 24.8981 99.2657 24.6284C102.423 24.2402 104.631 22.2419 106.522 19.7976C106.614 19.6786 106.703 19.5534 106.831 19.3732C106.885 19.2972 106.946 19.2115 107.017 19.1122C107.037 19.3279 107.037 19.5449 107.017 19.7605C106.689 21.1308 106.358 22.5006 106.027 23.8702L106.026 23.8731L106.025 23.8754C105.441 26.2924 104.857 28.7089 104.289 31.1271C104.161 31.668 104.004 31.9281 103.377 31.9281C94.8137 31.9088 86.2468 31.9088 77.6758 31.9281C77.6034 31.9281 77.5294 31.9184 77.4355 31.906C77.3795 31.8987 77.3164 31.8904 77.2424 31.8827C78.8108 28.9925 78.8934 25.9041 78.8934 22.7993C78.8934 21.6664 78.8957 20.5336 78.8979 19.401V19.3982C78.9025 17.1342 78.9071 14.8709 78.8934 12.6094C78.8686 9.87196 78.6457 7.16348 77.2424 4.62838H103.112V13.6498ZM250.143 12.1841C250.181 9.52097 250.696 6.95285 252.285 4.59943L237.221 4.57052C238.521 6.94046 238.814 9.47969 238.814 12.0602C238.828 14.4938 238.823 16.9273 238.819 19.3596C238.816 20.5753 238.814 21.7907 238.814 23.0057C238.822 26.061 238.669 29.0792 237.134 31.9198C238.398 31.9198 239.659 31.92 240.919 31.9202C247.202 31.9214 253.435 31.9225 259.665 31.895C259.892 31.895 260.23 31.5523 260.305 31.3046C260.565 30.4059 260.786 29.4953 261.008 28.5855C261.079 28.2957 261.149 28.0059 261.221 27.7167L263.004 20.5449C261.956 22.3187 260.289 23.6422 258.324 24.2608C256.342 24.903 254.317 24.8664 252.273 24.8296C251.583 24.8172 250.891 24.8047 250.197 24.8182C250.185 24.7109 250.172 24.6186 250.16 24.5355C250.139 24.3915 250.123 24.2754 250.123 24.1576C250.123 23.0231 250.119 21.8867 250.116 20.7488C250.108 17.8988 250.099 15.0404 250.143 12.1841Z" fill="url(#paint0_linear_14_5387)"/>
<defs>
<linearGradient id="paint0_linear_14_5387" x1="131.502" y1="0" x2="131.502" y2="32.7579" gradientUnits="userSpaceOnUse">
<stop stop-color="#CC263E"/>
<stop offset="1" stop-color="#732A4D"/>
</linearGradient>
</defs>
</svg>
