<svg width="256" height="33" viewBox="0 0 256 33" fill="none" xmlns="http://www.w3.org/2000/svg">
<path d="M220.423 3.53526C220.56 3.53526 220.681 3.50293 220.799 3.50293C227.303 3.50293 233.812 3.50294 240.312 3.53526C242.429 3.56773 244.5 4.15266 246.32 5.2321C251.665 8.28646 251.496 15.2759 247.532 18.7222C246.623 19.5302 245.48 20.0393 244.442 20.6776C244.304 20.7625 244.147 20.819 243.924 20.9241C245.496 23.6835 246.914 26.5035 249.888 28.0347C251.164 28.6893 251.956 28.7458 253.948 28.4388C254.146 29.0488 253.887 29.4488 253.395 29.8003C252.169 30.6573 250.723 31.1427 249.229 31.1982C244.785 31.4446 240.66 30.4346 237.189 27.4812C235.623 26.1798 234.533 24.3949 234.091 22.4068C234.014 22.0876 233.885 21.9382 233.545 21.9664C233.206 21.9947 232.963 21.9664 232.673 21.9664C232.565 21.9777 232.458 21.998 232.353 22.027C232.673 24.8753 232.394 27.8166 234.066 30.4346H220.35C221.239 29.1781 221.562 27.7479 221.744 26.2934C221.9 25.3081 221.988 24.3132 222.007 23.3158C222.007 18.7222 222.047 14.1245 221.922 9.53084C221.877 8.01982 221.421 6.51284 221.093 5.01394C220.919 4.50008 220.695 4.00477 220.423 3.53526ZM232.394 15.4416C234.357 15.3729 236.284 15.3446 238.208 15.2073C238.742 15.1185 239.246 14.8977 239.674 14.5649C240.886 13.7568 241.25 11.2843 239.177 10.5247C238.576 10.2968 237.944 10.1606 237.303 10.1207C235.783 10.0561 234.26 10.0884 232.737 10.0884C232.621 10.0996 232.506 10.1226 232.394 10.1571V15.4416Z" fill="black"/>
<path d="M37.4724 3.53516H51.0312C49.3061 6.43599 49.3464 11.466 49.504 14.3668H58.0449C58.0449 10.6862 58.255 6.99756 56.4814 3.54726H70.0886C68.7109 6.02388 68.5291 8.73483 68.4726 11.4539C68.4241 15.1991 68.4362 18.9443 68.4726 22.6895C68.4374 24.8341 68.7596 26.9696 69.426 29.0083C69.6266 29.4949 69.8518 29.9708 70.1007 30.4345H56.441C58.2267 27.061 58.0045 23.3925 58.0328 19.7038H49.4354C49.4354 23.3642 49.2212 27.0286 51.0231 30.4345H37.5169C37.8997 29.5677 38.2091 28.6703 38.4421 27.7518C38.7719 26.1042 38.9719 24.4331 39.04 22.7542C39.1248 18.8877 39.0764 15.0173 39.0643 11.1508C39.0882 9.11087 38.7868 7.08013 38.1714 5.13504C38.0138 4.60982 37.735 4.12906 37.4724 3.53516Z" fill="black"/>
<path d="M190.744 3.53516H208.193C208.047 4.09159 207.929 4.65528 207.842 5.22394C207.615 7.36118 208.108 9.3853 208.819 11.3811C210.262 15.4213 211.619 19.5059 213.11 23.538C213.658 24.9056 214.317 26.2258 215.082 27.4852C215.757 28.7205 216.765 29.7421 217.991 30.4345H201.632C201.892 29.9683 202.12 29.4851 202.315 28.9881C202.751 27.5741 202.484 26.1883 201.975 24.8429C201.925 24.7544 201.855 24.6789 201.77 24.6227C201.685 24.5666 201.588 24.5313 201.486 24.5197C198.569 24.4982 195.651 24.4982 192.731 24.5197C192.639 24.524 192.548 24.5496 192.467 24.5944C192.386 24.6393 192.316 24.7022 192.263 24.7783C191.661 26.3095 191.455 27.869 192.069 29.4487C192.237 29.7891 192.428 30.1172 192.643 30.4305H181.063C181.189 30.3295 181.282 30.2406 181.383 30.1719C182.935 29.0574 184.126 27.5123 184.809 25.7277C185.98 22.936 187.003 20.0715 188.041 17.2434C188.756 15.3162 189.394 13.3608 190.089 11.4296C191.014 8.86411 191.519 6.27034 190.744 3.53516ZM194.158 19.2312H200.036C199.07 16.4313 198.121 13.6921 197.123 10.8034C196.105 13.6961 195.135 16.4475 194.158 19.2312Z" fill="black"/>
<path d="M92.9763 12.9162V20.6935C91.2108 19.1461 89.0897 19.1583 86.9161 19.1098V23.5014H87.6029C89.623 23.5014 91.6107 23.4408 93.6066 23.5014C97.8932 23.659 101.073 21.7238 103.57 18.427L104.018 17.8371C104.018 17.8371 104.058 17.8371 104.143 17.8088C103.901 18.7744 103.658 19.7118 103.432 20.6369C102.701 23.7034 101.962 26.7739 101.259 29.8485C101.162 30.2525 101.008 30.3778 100.604 30.3737C92.0982 30.3737 83.5937 30.3737 75.0905 30.3737C74.9693 30.3737 74.8481 30.3737 74.6865 30.3495C76.0723 28.0224 76.3026 25.4569 76.3228 22.8833C76.3753 18.9522 76.347 15.0211 76.3228 11.0901C76.3501 9.0918 76.0527 7.10239 75.442 5.19952C75.2481 4.64198 74.9572 4.11676 74.6986 3.55518H100.152V12.4718C98.7012 10.8275 96.7902 10.5204 94.8105 10.4881C92.2895 10.4517 89.7644 10.4881 87.2433 10.4881C87.1383 10.4881 87.0373 10.4881 86.8878 10.5244V14.2293C89.0089 14.1283 91.1057 14.3707 92.9763 12.9162Z" fill="black"/>
<path d="M148.367 12.4034C145.757 9.78509 142.539 7.85309 139.002 6.77947C137.317 6.30541 135.595 5.97429 133.854 5.78963C132.735 5.64014 131.964 6.11689 131.746 6.77947C131.527 7.44206 131.859 8.15313 132.885 8.73087C134.792 9.80152 136.763 10.7509 138.703 11.7771C140.965 12.9609 143.244 14.1245 145.478 15.3567C147.381 16.4112 148.92 17.8697 149.74 19.9302C150.952 22.9603 149.918 26.3944 147.223 28.4589C145.203 30.0063 142.876 30.7699 140.428 31.1739C136.918 31.7935 133.32 31.718 129.839 30.9517C124.32 29.6912 121.027 26.1884 119.629 20.7988C119.603 20.6904 119.594 20.5787 119.601 20.4675C120.744 21.3321 121.867 22.3624 123.148 23.1179C126.107 24.9261 129.575 25.7203 133.026 25.3803C134.013 25.2756 134.979 25.0279 135.895 24.6451C137.175 24.1118 137.382 23.029 136.299 22.1684C135.073 21.2473 133.768 20.4362 132.4 19.7443C130.065 18.5081 127.641 17.4374 125.322 16.1728C124.082 15.4742 122.916 14.6541 121.839 13.7245C118.748 11.1186 119.164 7.78548 121.229 5.12302C122.784 3.10294 124.954 1.98786 127.313 1.23639C133.424 -0.780524 140.081 -0.322195 145.858 2.51307C148.415 3.72511 148.391 3.7736 148.391 6.55322L148.367 12.4034Z" fill="black"/>
<path d="M25.1743 30.4427H8.93689C10.4721 28.0428 10.7549 25.3682 10.8115 22.7058C10.9206 17.8576 10.8479 12.9771 10.8519 8.11272C10.8459 8.0407 10.8351 7.96917 10.8196 7.8986C5.74513 7.11481 2.68675 10.0358 -0.0161133 13.7003C1.11109 9.16316 2.23426 4.62203 3.37763 0.012207H4.18566C12.7777 0.012207 21.3738 0.012207 29.974 0.012207C30.5517 0.012207 30.8305 0.145539 30.98 0.751563C32.0142 4.91292 33.0889 9.0662 34.1474 13.2235C34.1701 13.3868 34.1809 13.5515 34.1798 13.7164C31.3517 10.3308 28.4468 7.25216 23.4693 7.88242C23.4693 8.10059 23.437 8.32281 23.437 8.54906C23.437 13.0633 23.437 17.5748 23.437 22.0836C23.4142 24.1762 23.7015 26.2606 24.2895 28.2691C24.5481 29.0078 24.8434 29.7333 25.1743 30.4427Z" fill="black"/>
<path d="M152.395 15.5749C152.799 13.9588 153.174 12.3428 153.57 10.7267C154.132 8.47229 154.714 6.22192 155.251 3.95944C155.348 3.55542 155.518 3.47462 155.885 3.47866H179.104C179.403 3.47866 179.645 3.47866 179.746 3.88267C180.716 7.7693 181.71 11.6478 182.659 15.5668C180.158 12.6417 177.581 9.87826 173.169 10.4479C173.139 10.5342 173.118 10.6236 173.108 10.7146C173.133 15.3123 173.108 19.91 173.226 24.4996C173.27 26.0308 173.743 27.558 174.082 29.073C174.251 29.5492 174.473 30.0046 174.745 30.4305H160.277C161.19 29.166 161.489 27.7317 161.703 26.2813C161.875 25.2119 161.975 24.1321 162.002 23.0492C162.038 19.009 162.002 14.9689 162.002 10.9287C162.002 10.7671 162.002 10.6055 161.974 10.452C157.493 9.78535 154.79 12.3589 152.395 15.5749Z" fill="black"/>
<path d="M220.423 3.53526C220.56 3.53526 220.681 3.50293 220.799 3.50293C227.303 3.50293 233.812 3.50294 240.312 3.53526C242.429 3.56773 244.5 4.15266 246.32 5.2321C251.665 8.28646 251.496 15.2759 247.532 18.7222C246.623 19.5302 245.48 20.0393 244.442 20.6776C244.304 20.7625 244.147 20.819 243.924 20.9241C245.496 23.6835 246.914 26.5035 249.888 28.0347C251.164 28.6893 251.956 28.7458 253.948 28.4388C254.146 29.0488 253.887 29.4488 253.395 29.8003C252.169 30.6573 250.723 31.1427 249.229 31.1982C244.785 31.4446 240.66 30.4346 237.189 27.4812C235.623 26.1798 234.533 24.3949 234.091 22.4068C234.014 22.0876 233.885 21.9382 233.545 21.9664C233.206 21.9947 232.963 21.9664 232.673 21.9664C232.565 21.9777 232.458 21.998 232.353 22.027C232.673 24.8753 232.394 27.8166 234.066 30.4346H220.35C221.239 29.1781 221.562 27.7479 221.744 26.2934C221.9 25.3081 221.988 24.3132 222.007 23.3158C222.007 18.7222 222.047 14.1245 221.922 9.53084C221.877 8.01982 221.421 6.51284 221.093 5.01394C220.919 4.50008 220.695 4.00477 220.423 3.53526ZM232.394 15.4416C234.357 15.3729 236.284 15.3446 238.208 15.2073C238.742 15.1185 239.246 14.8977 239.674 14.5649C240.886 13.7568 241.25 11.2843 239.177 10.5247C238.576 10.2968 237.944 10.1606 237.303 10.1207C235.783 10.0561 234.26 10.0884 232.737 10.0884C232.621 10.0996 232.506 10.1226 232.394 10.1571V15.4416Z" fill="url(#paint0_linear_15_47350)"/>
<path d="M37.4724 3.53516H51.0312C49.3061 6.43599 49.3464 11.466 49.504 14.3668H58.0449C58.0449 10.6862 58.255 6.99756 56.4814 3.54726H70.0886C68.7109 6.02388 68.5291 8.73483 68.4726 11.4539C68.4241 15.1991 68.4362 18.9443 68.4726 22.6895C68.4374 24.8341 68.7596 26.9696 69.426 29.0083C69.6266 29.4949 69.8518 29.9708 70.1007 30.4345H56.441C58.2267 27.061 58.0045 23.3925 58.0328 19.7038H49.4354C49.4354 23.3642 49.2212 27.0286 51.0231 30.4345H37.5169C37.8997 29.5677 38.2091 28.6703 38.4421 27.7518C38.7719 26.1042 38.9719 24.4331 39.04 22.7542C39.1248 18.8877 39.0764 15.0173 39.0643 11.1508C39.0882 9.11087 38.7868 7.08013 38.1714 5.13504C38.0138 4.60982 37.735 4.12906 37.4724 3.53516Z" fill="url(#paint1_linear_15_47350)"/>
<path d="M190.744 3.53516H208.193C208.047 4.09159 207.929 4.65528 207.842 5.22394C207.615 7.36118 208.108 9.3853 208.819 11.3811C210.262 15.4213 211.619 19.5059 213.11 23.538C213.658 24.9056 214.317 26.2258 215.082 27.4852C215.757 28.7205 216.765 29.7421 217.991 30.4345H201.632C201.892 29.9683 202.12 29.4851 202.315 28.9881C202.751 27.5741 202.484 26.1883 201.975 24.8429C201.925 24.7544 201.855 24.6789 201.77 24.6227C201.685 24.5666 201.588 24.5313 201.486 24.5197C198.569 24.4982 195.651 24.4982 192.731 24.5197C192.639 24.524 192.548 24.5496 192.467 24.5944C192.386 24.6393 192.316 24.7022 192.263 24.7783C191.661 26.3095 191.455 27.869 192.069 29.4487C192.237 29.7891 192.428 30.1172 192.643 30.4305H181.063C181.189 30.3295 181.282 30.2406 181.383 30.1719C182.935 29.0574 184.126 27.5123 184.809 25.7277C185.98 22.936 187.003 20.0715 188.041 17.2434C188.756 15.3162 189.394 13.3608 190.089 11.4296C191.014 8.86411 191.519 6.27034 190.744 3.53516ZM194.158 19.2312H200.036C199.07 16.4313 198.121 13.6921 197.123 10.8034C196.105 13.6961 195.135 16.4475 194.158 19.2312Z" fill="url(#paint2_linear_15_47350)"/>
<path d="M92.9763 12.9162V20.6935C91.2108 19.1461 89.0897 19.1583 86.9161 19.1098V23.5014H87.6029C89.623 23.5014 91.6107 23.4408 93.6066 23.5014C97.8932 23.659 101.073 21.7238 103.57 18.427L104.018 17.8371C104.018 17.8371 104.058 17.8371 104.143 17.8088C103.901 18.7744 103.658 19.7118 103.432 20.6369C102.701 23.7034 101.962 26.7739 101.259 29.8485C101.162 30.2525 101.008 30.3778 100.604 30.3737C92.0982 30.3737 83.5937 30.3737 75.0905 30.3737C74.9693 30.3737 74.8481 30.3737 74.6865 30.3495C76.0723 28.0224 76.3026 25.4569 76.3228 22.8833C76.3753 18.9522 76.347 15.0211 76.3228 11.0901C76.3501 9.0918 76.0527 7.10239 75.442 5.19952C75.2481 4.64198 74.9572 4.11676 74.6986 3.55518H100.152V12.4718C98.7012 10.8275 96.7902 10.5204 94.8105 10.4881C92.2895 10.4517 89.7644 10.4881 87.2433 10.4881C87.1383 10.4881 87.0373 10.4881 86.8878 10.5244V14.2293C89.0089 14.1283 91.1057 14.3707 92.9763 12.9162Z" fill="url(#paint3_linear_15_47350)"/>
<path d="M148.367 12.4034C145.757 9.78509 142.539 7.85309 139.002 6.77947C137.317 6.30541 135.595 5.97429 133.854 5.78963C132.735 5.64014 131.964 6.11689 131.746 6.77947C131.527 7.44206 131.859 8.15313 132.885 8.73087C134.792 9.80152 136.763 10.7509 138.703 11.7771C140.965 12.9609 143.244 14.1245 145.478 15.3567C147.381 16.4112 148.92 17.8697 149.74 19.9302C150.952 22.9603 149.918 26.3944 147.223 28.4589C145.203 30.0063 142.876 30.7699 140.428 31.1739C136.918 31.7935 133.32 31.718 129.839 30.9517C124.32 29.6912 121.027 26.1884 119.629 20.7988C119.603 20.6904 119.594 20.5787 119.601 20.4675C120.744 21.3321 121.867 22.3624 123.148 23.1179C126.107 24.9261 129.575 25.7203 133.026 25.3803C134.013 25.2756 134.979 25.0279 135.895 24.6451C137.175 24.1118 137.382 23.029 136.299 22.1684C135.073 21.2473 133.768 20.4362 132.4 19.7443C130.065 18.5081 127.641 17.4374 125.322 16.1728C124.082 15.4742 122.916 14.6541 121.839 13.7245C118.748 11.1186 119.164 7.78548 121.229 5.12302C122.784 3.10294 124.954 1.98786 127.313 1.23639C133.424 -0.780524 140.081 -0.322195 145.858 2.51307C148.415 3.72511 148.391 3.7736 148.391 6.55322L148.367 12.4034Z" fill="url(#paint4_linear_15_47350)"/>
<path d="M25.1743 30.4427H8.93689C10.4721 28.0428 10.7549 25.3682 10.8115 22.7058C10.9206 17.8576 10.8479 12.9771 10.8519 8.11272C10.8459 8.0407 10.8351 7.96917 10.8196 7.8986C5.74513 7.11481 2.68675 10.0358 -0.0161133 13.7003C1.11109 9.16316 2.23426 4.62203 3.37763 0.012207H4.18566C12.7777 0.012207 21.3738 0.012207 29.974 0.012207C30.5517 0.012207 30.8305 0.145539 30.98 0.751563C32.0142 4.91292 33.0889 9.0662 34.1474 13.2235C34.1701 13.3868 34.1809 13.5515 34.1798 13.7164C31.3517 10.3308 28.4468 7.25216 23.4693 7.88242C23.4693 8.10059 23.437 8.32281 23.437 8.54906C23.437 13.0633 23.437 17.5748 23.437 22.0836C23.4142 24.1762 23.7015 26.2606 24.2895 28.2691C24.5481 29.0078 24.8434 29.7333 25.1743 30.4427Z" fill="url(#paint5_linear_15_47350)"/>
<path d="M152.395 15.5749C152.799 13.9588 153.174 12.3428 153.57 10.7267C154.132 8.47229 154.714 6.22192 155.251 3.95944C155.348 3.55542 155.518 3.47462 155.885 3.47866H179.104C179.403 3.47866 179.645 3.47866 179.746 3.88267C180.716 7.7693 181.71 11.6478 182.659 15.5668C180.158 12.6417 177.581 9.87826 173.169 10.4479C173.139 10.5342 173.118 10.6236 173.108 10.7146C173.133 15.3123 173.108 19.91 173.226 24.4996C173.27 26.0308 173.743 27.558 174.082 29.073C174.251 29.5492 174.473 30.0046 174.745 30.4305H160.277C161.19 29.166 161.489 27.7317 161.703 26.2813C161.875 25.2119 161.975 24.1321 162.002 23.0492C162.038 19.009 162.002 14.9689 162.002 10.9287C162.002 10.7671 162.002 10.6055 161.974 10.452C157.493 9.78535 154.79 12.3589 152.395 15.5749Z" fill="url(#paint6_linear_15_47350)"/>
<g style="mix-blend-mode:overlay">
<g style="mix-blend-mode:overlay">
<path d="M221.837 4.93711C221.974 4.93711 222.096 4.90479 222.213 4.90479C228.717 4.90479 235.226 4.90479 241.727 4.93711C243.843 4.96959 245.914 5.55454 247.734 6.63398C253.079 9.68834 252.91 16.6778 248.946 20.1241C248.037 20.9321 246.894 21.4412 245.856 22.0795C245.718 22.1643 245.561 22.2209 245.339 22.3259C246.91 25.0854 248.328 27.9054 251.302 29.4366C252.579 30.0911 253.37 30.1477 255.362 29.8406C255.56 30.4507 255.302 30.8507 254.809 31.2022C253.587 32.0556 252.145 32.5394 250.655 32.596C246.211 32.8425 242.086 31.8324 238.616 28.8791C237.049 27.5776 235.959 25.7927 235.517 23.8047C235.44 23.4855 235.311 23.336 234.972 23.3643C234.632 23.3925 234.39 23.3643 234.099 23.3643C233.991 23.3756 233.884 23.3958 233.78 23.4249C234.099 26.2732 233.82 29.2144 235.493 31.8324H221.776C222.665 30.576 222.988 29.1457 223.17 27.6913C223.326 26.706 223.414 25.7111 223.433 24.7137C223.433 20.12 223.473 15.5223 223.348 10.9287C223.304 9.41765 222.847 7.91068 222.52 6.41178C222.342 5.89885 222.113 5.40486 221.837 4.93711ZM233.808 16.8596C235.771 16.7909 237.699 16.7626 239.622 16.6253C240.156 16.5365 240.661 16.3158 241.088 15.9829C242.3 15.1749 242.664 12.7023 240.591 11.9428C239.99 11.7148 239.358 11.5786 238.717 11.5387C237.198 11.4741 235.675 11.5064 234.151 11.5064C234.035 11.5176 233.92 11.5406 233.808 11.5751V16.8596Z" fill="white"/>
</g>
<g style="mix-blend-mode:overlay">
<path d="M38.8865 4.93701H52.4453C50.7201 7.83784 50.7605 12.8678 50.9181 15.7687H59.459C59.459 12.0881 59.6691 8.39944 57.8954 4.94914H71.5027C70.125 7.42576 69.9432 10.1367 69.8866 12.8557C69.8382 16.6009 69.8503 20.3462 69.8866 24.0914C69.8514 26.236 70.1737 28.3715 70.8401 30.4102C71.0407 30.8967 71.2659 31.3727 71.5148 31.8364H57.855C59.6408 28.4629 59.4186 24.7944 59.4468 21.1057H50.8494C50.8494 24.7661 50.6353 28.4305 52.4372 31.8364H38.931C39.3137 30.9696 39.6232 30.0722 39.8561 29.1537C40.186 27.5061 40.3859 25.835 40.4541 24.156C40.5389 20.2896 40.4904 16.4191 40.4783 12.5527C40.5022 10.5127 40.2008 8.48201 39.5855 6.53692C39.4279 6.02382 39.1491 5.53091 38.8865 4.93701Z" fill="white"/>
</g>
<g style="mix-blend-mode:overlay">
<path d="M192.158 4.93701H209.595C209.449 5.49344 209.331 6.05714 209.244 6.62579C209.017 8.76304 209.51 10.7872 210.221 12.783C211.664 16.8231 213.021 20.9078 214.512 24.9398C215.06 26.3074 215.719 27.6277 216.484 28.8871C217.159 30.1224 218.167 31.144 219.393 31.8364H203.034C203.294 31.3702 203.522 30.887 203.717 30.39C204.153 28.9759 203.886 27.5902 203.377 26.2448C203.327 26.1562 203.257 26.0808 203.172 26.0246C203.087 25.9684 202.99 25.9331 202.889 25.9216C199.972 25.9 197.053 25.9 194.134 25.9216C194.041 25.9259 193.95 25.9515 193.869 25.9963C193.788 26.0412 193.718 26.1041 193.665 26.1802C193.063 27.7114 192.857 29.2709 193.471 30.8506C193.641 31.1954 193.835 31.5275 194.053 31.8444H182.474C182.599 31.7434 182.692 31.6546 182.793 31.5859C184.345 30.4714 185.536 28.9263 186.219 27.1417C187.39 24.35 188.413 21.4855 189.451 18.6574C190.166 16.7302 190.804 14.7748 191.499 12.8436C192.437 10.2781 192.934 7.68432 192.158 4.93701ZM195.572 20.633H201.45C200.485 17.8332 199.535 15.094 198.537 12.2052C197.519 15.1101 196.55 17.8655 195.572 20.6451V20.633Z" fill="white"/>
</g>
<g style="mix-blend-mode:overlay">
<path d="M94.3902 14.3304V22.1037C92.6246 20.5563 90.5035 20.5684 88.3299 20.5199V24.9116H89.0167C91.0368 24.9116 93.0246 24.851 95.0204 24.9116C99.307 25.0691 102.487 23.1339 104.983 19.8371L105.432 19.2473C105.432 19.2473 105.472 19.2473 105.557 19.219C105.315 20.1846 105.072 21.1219 104.846 22.0471C104.115 25.1136 103.375 28.1841 102.672 31.2587C102.576 31.6627 102.422 31.7879 102.018 31.7839C93.5121 31.7839 85.0075 31.7839 76.5044 31.7839C76.3832 31.7839 76.262 31.7839 76.1003 31.7597C77.4861 29.4325 77.7164 26.867 77.7164 24.2934C77.7689 20.3624 77.7407 16.4313 77.7164 12.5002C77.7438 10.502 77.4463 8.51254 76.8357 6.60968C76.6417 6.05214 76.3509 5.52691 76.0923 4.96533H101.545V13.882C100.095 12.2376 98.1839 11.9306 96.2042 11.8982C93.6831 11.8619 91.158 11.8982 88.637 11.8982C88.5319 11.8982 88.4309 11.8982 88.2814 11.9346V15.6152C90.4106 15.5425 92.5196 15.7849 94.3902 14.3304Z" fill="white"/>
</g>
<g style="mix-blend-mode:overlay">
<path d="M149.781 13.8253C147.171 11.207 143.954 9.27498 140.416 8.20136C138.724 7.72619 136.996 7.39505 135.248 7.21152C134.129 7.06203 133.358 7.53878 133.14 8.20136C132.921 8.86395 133.253 9.575 134.279 10.1527C136.186 11.2234 138.157 12.1728 140.097 13.199C142.359 14.3828 144.638 15.5464 146.872 16.7786C148.775 17.8331 150.314 19.2916 151.134 21.3521C152.346 24.3822 151.312 27.8163 148.617 29.8808C146.597 31.4282 144.27 32.1918 141.822 32.5958C138.312 33.2153 134.714 33.1398 131.233 32.3736C125.714 31.1131 122.421 27.6103 121.023 22.2207C120.998 22.1123 120.988 22.0006 120.995 21.8894C122.138 22.754 123.261 23.7843 124.542 24.5398C127.501 26.348 130.969 27.1422 134.42 26.8022C135.407 26.6975 136.373 26.4498 137.289 26.0669C138.569 25.5336 138.776 24.4509 137.693 23.5903C136.467 22.6692 135.162 21.858 133.794 21.1662C131.459 19.9299 129.035 18.8593 126.716 17.5947C125.477 16.8961 124.31 16.076 123.233 15.1464C120.142 12.5405 120.558 9.20735 122.623 6.54488C124.178 4.52481 126.348 3.40972 128.707 2.65825C134.818 0.641341 141.475 1.0997 147.252 3.93496C149.809 5.14701 149.785 5.19549 149.785 7.97512L149.781 13.8253Z" fill="white"/>
</g>
<g style="mix-blend-mode:overlay">
<path d="M26.6045 31.8562H10.3671C11.9023 29.4564 12.1851 26.7818 12.2417 24.1193C12.3508 19.2711 12.2781 14.3906 12.2821 9.52629C12.2761 9.45427 12.2653 9.38275 12.2498 9.31218C7.17535 8.52839 4.11693 11.4494 1.41406 15.1138C2.54127 10.5767 3.66444 6.0356 4.8078 1.42578H5.61583C14.2079 1.42578 22.804 1.42578 31.4042 1.42578C31.9819 1.42578 32.2607 1.55911 32.4102 2.16514C33.4445 6.3265 34.5191 10.4798 35.5776 14.6371C35.6003 14.8004 35.6111 14.9651 35.61 15.13C32.7818 11.7443 29.877 8.66573 24.8995 9.296C24.8995 9.51417 24.8672 9.73639 24.8672 9.96264C24.8672 14.4768 24.8672 18.9883 24.8672 23.4972C24.8444 25.5898 25.1317 27.6742 25.7197 29.6826C25.9783 30.4214 26.2736 31.1469 26.6045 31.8562Z" fill="white"/>
</g>
<g style="mix-blend-mode:overlay">
<path d="M153.809 16.9889C154.213 15.3729 154.588 13.7568 154.984 12.1408C155.546 9.88635 156.128 7.63599 156.665 5.3735C156.762 4.96948 156.932 4.88868 157.299 4.89272H180.502C180.801 4.89272 181.043 4.89272 181.144 5.29673C182.114 9.18337 183.108 13.0619 184.057 16.9809C181.556 14.0558 178.979 11.2923 174.567 11.862C174.536 11.9482 174.516 12.0377 174.506 12.1286C174.531 16.7263 174.506 21.324 174.623 25.9136C174.668 27.4449 175.141 28.972 175.48 30.4871C175.649 30.9633 175.871 31.4187 176.143 31.8446H161.691C162.604 30.58 162.903 29.1458 163.117 27.6954C163.289 26.626 163.389 25.5461 163.416 24.4632C163.452 20.4231 163.416 16.3829 163.416 12.3428C163.416 12.1812 163.416 12.0196 163.388 11.866C158.903 11.2075 156.204 13.773 153.809 16.9889Z" fill="white"/>
</g>
</g>
<defs>
<linearGradient id="paint0_linear_15_47350" x1="126.913" y1="35.8201" x2="127.184" y2="-9.05388" gradientUnits="userSpaceOnUse">
<stop offset="0.38" stop-color="#AA3A58"/>
<stop offset="0.46" stop-color="#AE415A"/>
<stop offset="0.57" stop-color="#BB5560"/>
<stop offset="0.71" stop-color="#CF7669"/>
<stop offset="0.87" stop-color="#EAA476"/>
<stop offset="0.9" stop-color="#EFAC78"/>
</linearGradient>
<linearGradient id="paint1_linear_15_47350" x1="126.913" y1="35.82" x2="127.184" y2="-9.05396" gradientUnits="userSpaceOnUse">
<stop offset="0.38" stop-color="#AA3A58"/>
<stop offset="0.46" stop-color="#AE415A"/>
<stop offset="0.57" stop-color="#BB5560"/>
<stop offset="0.71" stop-color="#CF7669"/>
<stop offset="0.87" stop-color="#EAA476"/>
<stop offset="0.9" stop-color="#EFAC78"/>
</linearGradient>
<linearGradient id="paint2_linear_15_47350" x1="126.913" y1="35.82" x2="127.184" y2="-9.05396" gradientUnits="userSpaceOnUse">
<stop offset="0.38" stop-color="#AA3A58"/>
<stop offset="0.46" stop-color="#AE415A"/>
<stop offset="0.57" stop-color="#BB5560"/>
<stop offset="0.71" stop-color="#CF7669"/>
<stop offset="0.87" stop-color="#EAA476"/>
<stop offset="0.9" stop-color="#EFAC78"/>
</linearGradient>
<linearGradient id="paint3_linear_15_47350" x1="126.914" y1="35.8199" x2="127.184" y2="-9.05416" gradientUnits="userSpaceOnUse">
<stop offset="0.38" stop-color="#AA3A58"/>
<stop offset="0.46" stop-color="#AE415A"/>
<stop offset="0.57" stop-color="#BB5560"/>
<stop offset="0.71" stop-color="#CF7669"/>
<stop offset="0.87" stop-color="#EAA476"/>
<stop offset="0.9" stop-color="#EFAC78"/>
</linearGradient>
<linearGradient id="paint4_linear_15_47350" x1="126.913" y1="35.8201" x2="127.184" y2="-9.05389" gradientUnits="userSpaceOnUse">
<stop offset="0.38" stop-color="#AA3A58"/>
<stop offset="0.46" stop-color="#AE415A"/>
<stop offset="0.57" stop-color="#BB5560"/>
<stop offset="0.71" stop-color="#CF7669"/>
<stop offset="0.87" stop-color="#EAA476"/>
<stop offset="0.9" stop-color="#EFAC78"/>
</linearGradient>
<linearGradient id="paint5_linear_15_47350" x1="126.914" y1="35.8201" x2="127.184" y2="-9.05391" gradientUnits="userSpaceOnUse">
<stop offset="0.38" stop-color="#AA3A58"/>
<stop offset="0.46" stop-color="#AE415A"/>
<stop offset="0.57" stop-color="#BB5560"/>
<stop offset="0.71" stop-color="#CF7669"/>
<stop offset="0.87" stop-color="#EAA476"/>
<stop offset="0.9" stop-color="#EFAC78"/>
</linearGradient>
<linearGradient id="paint6_linear_15_47350" x1="126.913" y1="35.8201" x2="127.184" y2="-9.0539" gradientUnits="userSpaceOnUse">
<stop offset="0.38" stop-color="#AA3A58"/>
<stop offset="0.46" stop-color="#AE415A"/>
<stop offset="0.57" stop-color="#BB5560"/>
<stop offset="0.71" stop-color="#CF7669"/>
<stop offset="0.87" stop-color="#EAA476"/>
<stop offset="0.9" stop-color="#EFAC78"/>
</linearGradient>
</defs>
</svg>
